<svg width="27" height="27" viewBox="0 0 27 27" fill="none" xmlns="http://www.w3.org/2000/svg">
<path d="M13.5 24.8399C13.1625 24.8399 12.825 24.7612 12.5437 24.6037C10.44 23.4562 6.73875 22.2412 4.42125 21.9374L4.095 21.8924C2.62125 21.7124 1.40625 20.3287 1.40625 18.8324V5.24245C1.40625 4.3537 1.755 3.5437 2.39625 2.9587C3.0375 2.3737 3.87 2.09245 4.7475 2.1712C7.2225 2.36245 10.9575 3.59995 13.0725 4.92745L13.3425 5.08495C13.4212 5.12995 13.59 5.12995 13.6575 5.0962L13.8375 4.9837C15.9525 3.6562 19.6875 2.3962 22.1737 2.18245C22.1962 2.18245 22.2862 2.18245 22.3088 2.18245C23.13 2.1037 23.9738 2.3962 24.6038 2.9812C25.245 3.5662 25.5938 4.3762 25.5938 5.26495V18.8437C25.5938 20.3512 24.3787 21.7237 22.8938 21.9037L22.5225 21.9487C20.205 22.2524 16.4925 23.4787 14.4338 24.6149C14.1637 24.7724 13.8375 24.8399 13.5 24.8399ZM4.4775 3.84745C4.1175 3.84745 3.79125 3.9712 3.5325 4.20745C3.25125 4.4662 3.09375 4.83745 3.09375 5.24245V18.8324C3.09375 19.4962 3.6675 20.1374 4.30875 20.2274L4.64625 20.2724C7.1775 20.6099 11.0588 21.8812 13.3088 23.1074C13.41 23.1524 13.5563 23.1637 13.6125 23.1412C15.8625 21.8924 19.7663 20.6099 22.3088 20.2724L22.6912 20.2274C23.3325 20.1487 23.9062 19.4962 23.9062 18.8324V5.2537C23.9062 4.83745 23.7488 4.47745 23.4675 4.20745C23.175 3.9487 22.8037 3.82495 22.3875 3.84745C22.365 3.84745 22.275 3.84745 22.2525 3.84745C20.1038 4.0387 16.6387 5.19745 14.7487 6.3787L14.5687 6.50245C13.95 6.88495 13.0725 6.88495 12.4762 6.5137L12.2063 6.3562C10.2825 5.17495 6.8175 4.02745 4.6125 3.84745C4.5675 3.84745 4.5225 3.84745 4.4775 3.84745Z" fill="#292621"/>
<path d="M13.5 23.895C13.0387 23.895 12.6562 23.5125 12.6562 23.0513V6.17627C12.6562 5.71502 13.0387 5.33252 13.5 5.33252C13.9612 5.33252 14.3438 5.71502 14.3438 6.17627V23.0513C14.3438 23.5238 13.9612 23.895 13.5 23.895Z" fill="#292621"/>
<path d="M8.71875 10.395H6.1875C5.72625 10.395 5.34375 10.0125 5.34375 9.55127C5.34375 9.09002 5.72625 8.70752 6.1875 8.70752H8.71875C9.18 8.70752 9.5625 9.09002 9.5625 9.55127C9.5625 10.0125 9.18 10.395 8.71875 10.395Z" fill="#292621"/>
<path d="M9.5625 13.77H6.1875C5.72625 13.77 5.34375 13.3875 5.34375 12.9263C5.34375 12.465 5.72625 12.0825 6.1875 12.0825H9.5625C10.0237 12.0825 10.4062 12.465 10.4062 12.9263C10.4062 13.3875 10.0237 13.77 9.5625 13.77Z" fill="#292621"/>
</svg>
