<svg width="371" height="312" viewBox="0 0 371 312" fill="none" xmlns="http://www.w3.org/2000/svg">
<path d="M392.954 223.019C369.529 214.063 355.326 205.062 346.094 194.351C333.89 178.269 328.294 157.343 332.427 136.099C336.771 113.773 354.997 87.1085 384.76 79.0252C398.425 76.7245 411.343 77.3379 419.869 78.6023C443.931 82.6864 466.982 66.9038 471.669 42.8158C476.425 18.3707 460.455 -5.31487 436.01 -10.071C412.774 -14.592 393.957 -2.57447 384.005 22.0427C367.799 60.9903 335.911 87.4821 296.659 82.8563C296.523 82.8179 296.391 82.7565 296.253 82.7296C283.936 80.13 273.091 75.6179 264.003 69.3804C248.385 56.7217 238.858 37.1457 234.905 18.5229C233.947 13.9866 233.575 9.32539 233.926 4.69719C234.172 1.59018 234.588 -1.53152 235.2 -4.67495C237.624 -17.1335 245.855 -35.1184 261.672 -48.2337C267.827 -53.3339 276.3 -58.6166 287.206 -61.7287C300.965 -64.0828 313.991 -63.4723 322.574 -62.1967C346.636 -58.1126 369.688 -73.8952 374.375 -97.9833C379.131 -122.428 363.161 -146.114 338.716 -150.87C315.48 -155.391 296.662 -143.373 286.71 -118.756C269.695 -77.8628 235.392 -50.682 193.433 -58.8457C151.475 -67.0094 133.388 -115.808 135.682 -147.006C137.621 -169.872 125.304 -189.298 104.92 -195.761C74.8339 -205.308 44.1512 -181.199 45.8597 -149.688C46.8396 -131.691 58.7843 -117.106 79.0533 -109.374C108.241 -98.2223 123.12 -86.9861 131.896 -72.4558C141.643 -56.2789 141.969 -37.1309 142.549 -14.193C142.634 -10.7588 143.012 -7.4825 143.638 -4.37315C144.755 2.53641 147.565 8.85507 151.905 14.372C154.975 18.4348 158.706 21.8615 162.971 24.5676C166.907 27.2456 171.369 29.5596 176.341 31.4591C192.993 37.8181 204.99 44.2153 213.842 51.2316C231.194 67.8128 240.033 92.5847 235.121 117.836C233.317 127.105 229.798 135.61 224.992 143.112C206.209 167.361 179.198 180.951 147.902 174.862C105.944 166.698 87.8479 117.946 90.1439 86.7363C92.0833 63.8703 79.7659 44.4447 59.3815 37.981C29.3096 28.4254 -1.37076 52.5229 0.34699 84.0473C1.32907 102.032 13.2716 116.629 33.5291 124.359C62.7167 135.511 83.3527 147.867 92.1316 162.386C101.393 177.739 96.9572 194.766 96.9813 216.078C96.9839 216.126 96.9771 216.161 96.9797 216.209C95.968 227.305 99.132 238.007 105.292 246.579C105.366 246.689 105.452 246.801 105.526 246.911C105.63 247.051 105.723 247.188 105.827 247.328C111.361 255.001 119.197 260.482 128.504 263.32C128.707 263.383 128.921 263.449 129.124 263.512C129.52 263.625 129.928 263.74 130.338 263.844C130.668 263.932 131.008 264.022 131.34 264.099C131.773 264.207 132.211 264.292 132.646 264.389C132.865 264.431 133.07 264.483 133.289 264.526C133.323 264.533 133.346 264.537 133.381 264.544C133.415 264.55 133.438 264.555 133.473 264.562C133.784 264.622 134.097 264.671 134.399 264.718C134.792 264.783 135.172 264.856 135.566 264.921C135.822 264.959 136.079 264.985 136.335 265.023C158.159 267.955 175.781 255.943 185.292 232.424C202.307 191.53 236.611 164.349 278.569 172.513C320.527 180.677 338.623 229.429 336.327 260.639C334.388 283.505 346.705 302.93 367.089 309.394C397.187 318.943 427.867 294.845 426.149 263.321C425.156 245.333 413.211 230.748 392.954 223.019Z" fill="#F5F4F0"/>
</svg>
