<svg width="156" height="156" viewBox="0 0 156 156" fill="none" xmlns="http://www.w3.org/2000/svg">
<g clip-path="url(#clip0_736_2804)">
<path d="M23.5644 130.901V54.8857C24.1659 54.8475 24.733 54.7845 25.2982 54.7826C28.0957 54.7692 30.8932 54.8132 33.6887 54.7521C35.2259 54.7177 36.1062 53.8145 36.1024 52.5007C36.0986 51.1812 35.2202 50.2971 33.6735 50.2818C29.5851 50.2398 25.4968 50.236 21.4104 50.2856C19.8331 50.3047 19.0769 51.1335 18.9681 52.7012C18.9337 53.1824 18.9586 53.6694 18.9586 54.1525C18.9586 79.007 18.9586 103.862 18.9586 128.718V130.926H12.9091C12.8824 130.408 12.8289 129.843 12.8289 129.279C12.8251 102.649 12.8232 76.0186 12.8289 49.3882C12.8289 45.6264 14.3298 44.135 18.1241 44.1293C23.9329 44.1197 29.7436 44.1579 35.5505 44.1006C36.7077 44.0892 37.3264 44.3966 37.9031 45.4793C41.9571 53.0889 48.375 56.8946 56.9794 57.034C58.3065 57.055 59.6337 57.0378 61.0467 57.0378V75.2376C60.4242 75.2643 59.8533 75.3121 59.2804 75.3121C55.6771 75.3197 52.0719 75.2701 48.4686 75.3426C47.3267 75.3655 46.6793 75.0925 46.0912 74.0155C44.5273 71.1474 41.2066 69.8928 38.0597 70.7693C35.0579 71.6057 32.9039 74.4852 32.9268 77.6303C32.9498 80.8058 35.0502 83.5479 38.1342 84.4282C41.2753 85.3238 44.6342 83.9566 46.223 80.9739C46.708 80.063 47.2293 79.8033 48.2032 79.8129C52.9904 79.8606 57.7776 79.8415 62.5648 79.83C64.9193 79.8243 65.6468 79.1006 65.6506 76.75C65.6621 70.8323 65.6544 64.9146 65.6544 58.997C65.6544 58.4165 65.6544 57.8341 65.6544 57.1485H76.0328V58.7793C76.0328 67.1182 76.0175 75.4572 76.0519 83.7962C76.0557 84.8044 75.8399 85.4002 74.8622 85.9253C71.9196 87.5083 70.5982 90.7507 71.4384 93.8709C72.2958 97.0541 75.0417 99.168 78.3109 99.1603C81.58 99.1527 84.3011 97.0312 85.147 93.8289C85.9719 90.7049 84.6009 87.4911 81.6908 85.8833C80.9938 85.4995 80.5164 85.2016 80.5221 84.2373C80.5718 75.4152 80.5527 66.5912 80.5584 57.7691C80.5584 57.6145 80.6061 57.4598 80.6539 57.1734H90.9291C90.9291 57.7386 90.9291 58.3114 90.9291 58.8824C90.9291 64.8001 90.9253 70.7177 90.931 76.6354C90.9348 79.1216 91.6242 79.8281 94.0608 79.8339C98.7945 79.8434 103.528 79.8587 108.26 79.8205C109.255 79.8129 109.858 80 110.387 81.0101C111.915 83.9317 115.253 85.2951 118.335 84.4702C121.482 83.6281 123.659 80.8115 123.653 77.5902C123.647 74.4241 121.491 71.5808 118.478 70.7635C115.266 69.8928 111.963 71.2218 110.378 74.1931C109.887 75.1135 109.352 75.3484 108.392 75.3388C104.151 75.293 99.9097 75.3178 95.5578 75.3178V57.0397C96.7131 57.0397 97.7767 57.034 98.8403 57.0397C107.974 57.1046 114.722 53.1901 118.98 45.042C119.209 44.6048 119.933 44.1694 120.431 44.1656C127.478 44.1102 134.524 44.0949 141.57 44.1484C144.364 44.1694 146.033 45.8364 146.035 48.5823C146.056 75.7513 146.048 102.918 146.044 130.087C146.044 130.345 145.991 130.603 145.952 130.948H139.916V128.903C139.916 103.886 139.916 78.8715 139.916 53.8546C139.916 50.8108 139.378 50.2627 136.369 50.2608C131.957 50.257 127.546 50.2417 123.137 50.2723C121.318 50.2856 120.319 51.2557 120.506 52.7547C120.697 54.2957 121.772 54.7673 123.149 54.7712C126.592 54.7826 130.035 54.7769 133.476 54.7788C134.054 54.7788 134.635 54.7788 135.303 54.7788V130.903H23.5644V130.901Z" fill="#30429E"/>
<path d="M95.4509 52.4184C95.4509 47.4841 95.4509 42.7007 95.4509 37.9173C95.4509 37.4877 95.4586 37.0561 95.449 36.6265C95.407 34.9442 94.647 33.9932 93.3065 33.9397C91.9259 33.8844 90.954 34.9155 90.9444 36.6035C90.9158 41.5531 90.933 46.5026 90.9291 51.4502C90.9291 51.7156 90.8909 51.9792 90.8604 52.3783H80.5527C80.5527 51.8149 80.5527 51.2478 80.5527 50.6807C80.5527 45.7846 80.5603 40.8905 80.5489 35.9944C80.5451 34.1269 79.6991 33.1167 78.2307 33.1549C76.8329 33.1912 76.0424 34.1689 76.0385 35.9543C76.0271 41.385 76.0347 46.8139 76.0347 52.3783H65.7309C65.706 51.8149 65.6583 51.2478 65.6583 50.6807C65.6526 46.1627 65.6583 41.6428 65.6487 37.1248C65.6487 36.5921 65.6411 36.0326 65.4826 35.5361C65.1064 34.3522 64.2166 33.7679 63.0021 33.9837C61.7132 34.2128 61.1346 35.1141 61.1365 36.424C61.146 41.1043 61.1365 45.7846 61.1365 50.4649C61.1365 51.053 61.1365 51.6412 61.1365 52.214C50.6875 54.051 42.4402 48.4446 40.544 39.4698C38.8197 31.3046 43.3931 23.4487 51.3272 20.6875C52.3832 20.3209 52.788 19.8989 52.8606 18.7169C53.4735 8.76627 61.992 0.772939 71.9693 0.6851C82.1491 0.595352 90.7382 8.31944 91.5345 18.3636C91.6299 19.5743 92.0405 19.8416 93.1881 19.8683C96.78 19.9524 100.46 19.7289 103.939 20.4431C111.839 22.0643 117.019 29.5593 116.358 37.6863C115.726 45.4676 109.228 51.855 101.307 52.3993C99.4457 52.5272 97.5667 52.4184 95.4547 52.4184H95.4509Z" fill="#7790ED"/>
<path d="M51.8295 135.632C51.8295 138.132 51.8142 140.49 51.8333 142.847C51.8562 145.707 53.3667 147.237 56.2176 147.238C70.9535 147.248 85.6895 147.25 100.425 147.238C103.179 147.237 104.724 145.692 104.754 142.95C104.781 140.544 104.76 138.138 104.76 135.565H106.809C121.868 135.565 136.926 135.565 151.985 135.565C154.521 135.565 155.778 136.858 155.756 139.444C155.695 147.021 151.103 153.166 143.948 155.058C142.41 155.465 140.766 155.616 139.17 155.616C98.5655 155.644 57.961 155.646 17.3566 155.635C7.06034 155.631 -0.165357 147.576 0.829513 137.286C0.934538 136.201 1.45966 135.611 2.56528 135.577C2.78106 135.569 2.99493 135.567 3.21071 135.567C19.0217 135.567 34.8346 135.567 50.6456 135.569C50.9645 135.569 51.2834 135.604 51.8295 135.636V135.632Z" fill="#30429E"/>
<path d="M100.106 142.65H56.4296V135.652H100.106V142.65Z" fill="#B4C7F2"/>
</g>
<defs>
<clipPath id="clip0_736_2804">
<rect width="155.022" height="154.953" fill="white" transform="translate(0.739746 0.685547)"/>
</clipPath>
</defs>
</svg>
