<svg width="50" height="50" viewBox="0 0 50 50" fill="none" xmlns="http://www.w3.org/2000/svg">
<path d="M33.4983 47.2764H17.0555C5.2373 47.2764 5.2373 41.0076 5.2373 35.4581V33.4028C5.2373 28.8194 5.2373 23.6399 15.0002 23.6399C17.4461 23.6399 18.3504 24.2359 19.6247 25.1814C19.6864 25.2431 19.7686 25.2842 19.8303 25.3664L21.9267 27.5862C23.6943 29.4565 26.9007 29.4565 28.6683 27.5862L30.7647 25.3664C30.8264 25.3047 30.888 25.2431 30.9702 25.1814C32.2446 24.2154 33.1489 23.6399 35.5948 23.6399C45.3577 23.6399 45.3577 28.8194 45.3577 33.4028V35.4581C45.3166 43.3096 41.3497 47.2764 33.4983 47.2764ZM15.0002 26.7229C8.32032 26.7229 8.32032 28.8194 8.32032 33.4028V35.4581C8.32032 41.0898 8.32032 44.1934 17.0555 44.1934H33.4983C39.6232 44.1934 42.2335 41.5831 42.2335 35.4581V33.4028C42.2335 28.8194 42.2335 26.7229 35.5537 26.7229C34.0738 26.7229 33.7655 26.9079 32.8817 27.5656L30.888 29.6826C29.4082 31.2447 27.4145 32.1079 25.2769 32.1079C23.1394 32.1079 21.1457 31.2447 19.6658 29.6826L17.6721 27.5656C16.7884 26.9079 16.48 26.7229 15.0002 26.7229Z" fill="#30429E"/>
<path d="M39.6643 26.7229C38.8216 26.7229 38.1228 26.0241 38.1228 25.1814V12.8493C38.1228 8.2659 38.1228 6.16945 31.4429 6.16945H19.1108C12.4309 6.16945 12.4309 8.2659 12.4309 12.8493V25.1814C12.4309 26.0241 11.7321 26.7229 10.8894 26.7229C10.0467 26.7229 9.3479 26.0241 9.3479 25.1814V12.8493C9.3479 8.2659 9.3479 3.08643 19.1108 3.08643H31.4429C41.2058 3.08643 41.2058 8.2659 41.2058 12.8493V25.1814C41.2058 26.0241 40.507 26.7229 39.6643 26.7229Z" fill="#30429E"/>
<path d="M29.1409 21.0296H22.2966C21.4539 21.0296 20.7551 20.3307 20.7551 19.488C20.7551 18.6454 21.4539 17.9465 22.2966 17.9465H29.1409C29.9836 17.9465 30.6825 18.6454 30.6825 19.488C30.6825 20.3307 30.0042 21.0296 29.1409 21.0296Z" fill="#B4C7F2"/>
<path d="M30.8676 14.8635H20.5908C19.7481 14.8635 19.0493 14.1647 19.0493 13.322C19.0493 12.4793 19.7481 11.7805 20.5908 11.7805H30.8676C31.7103 11.7805 32.4091 12.4793 32.4091 13.322C32.4091 14.1647 31.7308 14.8635 30.8676 14.8635Z" fill="#7790ED"/>
</svg>
