<svg width="157" height="182" viewBox="0 0 157 182" fill="none" xmlns="http://www.w3.org/2000/svg">
<g clip-path="url(#clip0_736_2775)">
<path d="M150.083 36.1986C141.971 33.0121 133.835 29.8766 125.709 26.7202C122.675 25.5421 119.642 24.3709 116.453 23.1348V149.633C116.544 149.661 116.636 149.691 116.727 149.719C116.956 149.183 117.205 148.652 117.416 148.11C130.196 115.138 142.98 82.1644 155.754 49.1882C157.955 43.5086 155.751 38.425 150.083 36.1986Z" fill="#7790ED"/>
<path d="M71.4149 171.716C79.5088 174.917 87.5586 178.236 95.7197 181.253C99.4721 182.64 103.776 180.975 105.722 177.64C106.942 175.548 107.707 173.189 108.617 171.086H71.1899C71.3755 171.612 71.3801 171.7 71.4149 171.714V171.716Z" fill="#7790ED"/>
<path d="M50.3708 45.6377C51.2405 46.461 51.6139 47.4373 51.3611 48.634C51.266 49.0793 51.1988 49.5339 51.1478 49.9861C51.0619 50.7769 51.5954 51.1712 52.312 50.8465C52.6622 50.6888 52.9822 50.4638 53.337 50.3177C53.9052 50.0812 54.4897 49.8864 55.037 49.6846C55.5634 49.8423 56.0087 49.9397 56.4262 50.109C56.8483 50.2806 57.224 50.5682 57.6507 50.7143C57.9823 50.8279 58.4972 50.9625 58.6873 50.8001C58.9239 50.5983 58.9726 50.1067 58.9888 49.7356C59.0051 49.3599 58.9007 48.9726 58.8219 48.5969C58.576 47.4281 58.9448 46.4702 59.7889 45.6632C60.1368 45.3315 60.4963 45.0068 60.8117 44.6451C61.2686 44.1209 61.0529 43.4855 60.3711 43.3394C59.9026 43.2373 59.4225 43.177 58.9471 43.1167C57.7435 42.9683 56.9109 42.3282 56.4076 41.2382C56.2569 40.9112 56.1386 40.5541 55.9229 40.2758C55.7072 39.9975 55.3709 39.5986 55.1182 39.6194C54.8097 39.645 54.4827 40.016 54.2554 40.3082C54.0235 40.6051 53.9052 40.9877 53.7336 41.3333C53.242 42.3305 52.4674 42.9428 51.3495 43.0959C50.8486 43.1631 50.3476 43.2327 49.8537 43.3347C49.1254 43.4832 48.9051 44.1209 49.3968 44.6706C49.7006 45.0115 50.0392 45.3199 50.3708 45.6353V45.6377Z" fill="#B4C7F2"/>
<path d="M50.5447 103.549C51.2729 104.31 51.5813 105.203 51.3796 106.256C51.2798 106.775 51.1871 107.297 51.136 107.823C51.085 108.336 51.3424 108.64 52.0034 108.721C52.4348 108.503 52.9751 108.253 53.4969 107.965C54.5522 107.385 55.5958 107.36 56.6556 107.949C57.0754 108.183 57.4952 108.422 57.9358 108.61C58.5875 108.888 59.1163 108.503 59.0513 107.798C59.0026 107.272 58.9052 106.75 58.8078 106.23C58.6153 105.203 58.9122 104.329 59.6172 103.584C59.9976 103.183 60.4266 102.828 60.7953 102.415C61.2847 101.868 61.0597 101.209 60.3431 101.058C59.8978 100.966 59.441 100.926 58.9864 100.866C57.8268 100.715 56.9734 100.138 56.4608 99.071C56.2637 98.6605 56.099 98.2222 55.837 97.8557C55.6607 97.6099 55.336 97.3223 55.0833 97.327C54.8281 97.3316 54.5174 97.6308 54.3458 97.8812C54.0744 98.2732 53.9005 98.7301 53.6871 99.1591C53.214 100.115 52.4348 100.657 51.3958 100.836C50.9227 100.917 50.4287 100.919 49.9741 101.052C49.6842 101.135 49.3085 101.348 49.2227 101.592C49.1392 101.833 49.3016 102.239 49.4825 102.475C49.7863 102.872 50.2014 103.183 50.5493 103.547L50.5447 103.549Z" fill="#B4C7F2"/>
<path d="M70.9441 94.3726C71.6376 95.0961 71.9252 95.9519 71.7582 96.9515C71.67 97.4733 71.5726 97.9951 71.5077 98.5192C71.4173 99.2521 71.953 99.6602 72.6395 99.3912C72.8389 99.3124 73.0384 99.215 73.2146 99.0921C74.7197 98.06 76.2133 98.067 77.7184 99.0944C77.9898 99.2799 78.3168 99.3866 78.5371 99.4909C79.1656 99.4469 79.4555 99.1686 79.4137 98.6445C79.3697 98.118 79.2792 97.5939 79.1772 97.0744C78.9661 95.9913 79.2769 95.0776 80.0422 94.3076C80.4156 93.9319 80.8215 93.584 81.1717 93.1898C81.6401 92.661 81.4453 92.0372 80.7565 91.8702C80.2672 91.7519 79.7616 91.7009 79.2607 91.6336C78.1799 91.4852 77.3775 90.9472 76.8835 89.9685C76.6562 89.5186 76.4684 89.0408 76.1901 88.6234C76.0347 88.3914 75.7216 88.1108 75.492 88.1224C75.223 88.1363 74.9006 88.3938 74.7267 88.6373C74.4507 89.0246 74.2791 89.4861 74.0657 89.9175C73.5671 90.924 72.7601 91.4922 71.6469 91.636C71.241 91.687 70.8212 91.6986 70.4363 91.8238C70.1208 91.9258 69.6686 92.116 69.6037 92.3572C69.5248 92.6425 69.7266 93.0715 69.9284 93.3521C70.2067 93.7371 70.6079 94.0293 70.9418 94.3772L70.9441 94.3726Z" fill="#B4C7F2"/>
<path d="M70.9163 54.2256C71.6978 55.0187 72.0063 55.9557 71.7813 57.0596C71.6862 57.5304 71.6213 58.0081 71.5564 58.4047C71.5146 59.2744 72.0318 59.6176 72.7716 59.2744C73.1844 59.0819 73.588 58.8639 73.9869 58.6459C74.9957 58.0962 76.0022 58.0893 77.0134 58.6412C77.4354 58.8708 77.8552 59.1074 78.2935 59.3022C79.0125 59.6176 79.5668 59.1978 79.4601 58.4256C79.4021 57.9965 79.3163 57.5721 79.2374 57.1477C79.0171 55.9719 79.2931 54.9584 80.1883 54.1328C80.5246 53.8243 80.8585 53.5089 81.1647 53.1727C81.6934 52.5952 81.487 51.9319 80.7287 51.7742C80.2834 51.6814 79.8265 51.6374 79.3743 51.5794C78.2402 51.4333 77.403 50.8721 76.8951 49.8377C76.6724 49.3855 76.466 48.924 76.2132 48.488C75.8375 47.8409 75.1696 47.8386 74.7962 48.4833C74.555 48.8985 74.3626 49.3391 74.1562 49.7728C73.632 50.8628 72.767 51.4565 71.5703 51.5887C71.1412 51.6351 70.7076 51.6838 70.2855 51.7742C69.5178 51.9365 69.3068 52.5882 69.8379 53.1634C70.1788 53.5345 70.5615 53.8661 70.9163 54.2256Z" fill="#B4C7F2"/>
<path d="M80.1141 71.9829C79.6364 72.0409 79.1563 72.0989 78.6901 72.2102C77.9503 72.3864 77.7694 73.0033 78.2843 73.5669C78.609 73.9217 78.9661 74.2487 79.314 74.5804C80.084 75.3132 80.4063 76.2061 80.2579 77.259C80.1837 77.7831 80.0747 78.3026 80.0005 78.8267C79.8915 79.5944 80.4481 80.0188 81.1647 79.7243C81.3641 79.6431 81.5636 79.5457 81.7398 79.4228C83.2218 78.407 84.6945 78.4186 86.181 79.4228C86.4732 79.6199 86.8211 79.7335 87.0577 79.8449C87.6908 79.7706 87.9668 79.4854 87.9111 78.9613C87.8578 78.4603 87.7604 77.9617 87.6723 77.4654C87.4728 76.3638 87.7581 75.4153 88.5582 74.6291C88.9176 74.2742 89.3003 73.938 89.6389 73.5646C90.1491 73.001 89.9613 72.3864 89.2261 72.2125C88.7599 72.1012 88.2776 72.0409 87.8021 71.9852C86.6541 71.8484 85.8401 71.2547 85.3299 70.2273C85.1049 69.7751 84.9078 69.3066 84.6527 68.8729C84.3025 68.2769 83.6207 68.2792 83.2682 68.8729C83.0107 69.3066 82.8067 69.7704 82.584 70.225C82.0784 71.257 81.2621 71.8461 80.1141 71.9852V71.9829Z" fill="#B4C7F2"/>
<path d="M40.2713 91.6784C39.8261 91.5856 39.3692 91.5462 38.9146 91.4859C37.755 91.3351 36.9016 90.7577 36.3891 89.6908C36.1919 89.2804 36.0273 88.842 35.7652 88.4756C35.5889 88.2298 35.2643 87.9422 35.0115 87.9468C34.7564 87.9515 34.4456 88.2506 34.274 88.5011C34.0026 88.8931 33.8287 89.3499 33.6153 89.779C33.1422 90.7345 32.363 91.2771 31.324 91.4557C30.8509 91.5369 30.3569 91.5392 29.9024 91.6714C29.6125 91.7549 29.2368 91.9683 29.151 92.2118C29.0675 92.453 29.2298 92.8588 29.4107 93.0954C29.7145 93.4919 30.1296 93.8027 30.4775 94.1668C31.2057 94.9275 31.5142 95.8204 31.3101 96.8733C31.2104 97.3928 31.1176 97.9146 31.0666 98.441C31.0156 98.9536 31.273 99.2574 31.9339 99.3386C32.3653 99.1206 32.9057 98.8701 33.4275 98.5825C34.4827 98.0027 35.5263 97.9772 36.5862 98.5663C37.006 98.8005 37.4257 99.0394 37.8664 99.2272C38.518 99.5055 39.0468 99.1206 38.9819 98.4155C38.9332 97.8891 38.8358 97.3673 38.7384 96.8478C38.5459 95.8204 38.8427 94.9461 39.5478 94.2016C39.9281 93.8004 40.3571 93.4456 40.7259 93.0328C41.2152 92.4854 40.9903 91.8268 40.2737 91.676L40.2713 91.6784Z" fill="#B4C7F2"/>
<path d="M21.5576 74.5622C22.4296 75.3994 22.738 76.4013 22.4806 77.5864C22.3832 78.0316 22.302 78.4862 22.2719 78.9408C22.2255 79.6481 22.7496 80.0168 23.406 79.7339C23.8698 79.5345 24.2919 79.2446 24.7557 79.0451C25.2126 78.848 25.6996 78.7158 26.182 78.5535C26.6783 78.7042 27.1468 78.8132 27.5851 78.9918C28.0281 79.1727 28.427 79.4765 28.8769 79.6295C29.1853 79.7339 29.6468 79.8058 29.8625 79.6481C30.0759 79.4927 30.1385 79.0335 30.1408 78.7065C30.1431 78.3053 30.0156 77.9018 29.946 77.4982C29.7442 76.3178 30.0504 75.309 30.9548 74.4949C31.2958 74.1888 31.6297 73.8734 31.9289 73.5302C32.3997 72.9921 32.2095 72.3868 31.5114 72.2175C31.0453 72.1039 30.5652 72.0413 30.0875 71.9856C28.9093 71.8488 28.0814 71.2435 27.5758 70.179C27.3787 69.7662 27.2094 69.3325 26.9496 68.9614C26.7896 68.7318 26.4742 68.4558 26.2469 68.4697C25.9779 68.486 25.6556 68.7457 25.4839 68.9892C25.2103 69.3789 25.0479 69.845 24.8299 70.2717C24.322 71.2666 23.5196 71.8464 22.4018 71.981C21.9727 72.032 21.5251 72.0482 21.1216 72.185C20.8155 72.2894 20.4351 72.512 20.3308 72.7787C20.2449 72.9991 20.456 73.4003 20.6392 73.6461C20.8966 73.9893 21.2468 74.263 21.5576 74.5622Z" fill="#B4C7F2"/>
<path d="M30.0805 54.2186C30.818 54.9398 31.1334 55.8118 30.9803 56.8369C30.8991 57.3842 30.7855 57.9246 30.7159 58.4719C30.6463 59.0169 30.9015 59.3393 31.5926 59.4413C32.0239 59.221 32.562 58.9659 33.0838 58.6807C34.139 58.1009 35.1849 58.0777 36.2425 58.6667C36.6205 58.8778 37.0032 59.0795 37.3928 59.2651C38.1674 59.6292 38.6985 59.2767 38.6243 58.4371C38.5825 57.9826 38.5013 57.5327 38.4086 57.0851C38.172 55.951 38.4921 54.9978 39.3038 54.1931C39.6447 53.8545 40.0065 53.5344 40.3335 53.1819C40.8924 52.5766 40.6721 51.918 39.8581 51.7649C39.4105 51.6791 38.9536 51.6397 38.5013 51.5747C37.3997 51.4194 36.5788 50.8651 36.0801 49.8609C35.8668 49.4318 35.6975 48.968 35.4261 48.5807C35.2545 48.3349 34.9252 48.045 34.6724 48.0496C34.4173 48.0543 34.1112 48.3557 33.9303 48.6016C33.6937 48.9263 33.5499 49.3205 33.3783 49.6916C32.8449 50.8349 31.9613 51.4773 30.6997 51.5956C30.3402 51.6304 29.9668 51.6397 29.6352 51.7603C29.3244 51.8739 28.9116 52.0641 28.8235 52.3192C28.7354 52.5697 28.9348 52.9894 29.1227 53.2515C29.387 53.6156 29.7604 53.9009 30.0874 54.2209L30.0805 54.2186Z" fill="#B4C7F2"/>
<path d="M103.38 16.0845C71.9623 16.0845 40.5469 16.0845 9.12926 16.0845C3.48211 16.0868 0.951904 18.6379 0.951904 24.3314C0.951904 46.593 0.951904 68.857 0.951904 91.1209C0.951904 113.385 0.951904 135.769 0.951904 158.094C0.951904 163.646 3.52385 166.229 9.05969 166.229C40.5377 166.232 72.0133 166.232 103.491 166.229C108.988 166.229 111.599 163.597 111.599 158.07C111.599 113.482 111.599 68.8964 111.599 24.3082C111.599 18.6657 109.02 16.0845 103.378 16.0845H103.38ZM86.5104 67.8087C87.0832 69.3788 88.099 69.9377 89.7062 70.1279C91.9465 70.3946 92.8487 73.1289 91.3853 74.8659C91.0304 75.288 90.6246 75.673 90.2141 76.0394C89.8268 76.385 89.7363 76.7746 89.8361 77.2709C89.9543 77.8577 90.0749 78.456 90.0865 79.052C90.1213 81.1601 87.9251 82.7395 86.0883 81.7399C84.5716 80.9143 83.3934 80.8911 81.8697 81.726C80.0399 82.7302 77.8158 81.1671 77.8043 78.9059C77.8715 78.514 77.9504 77.9435 78.0686 77.3776C78.1916 76.7839 78.0849 76.3015 77.5863 75.9026C77.2314 75.6197 76.9137 75.2811 76.6099 74.9425C75.8376 74.0797 75.6289 73.0802 76.0092 71.9902C76.3803 70.928 77.1433 70.158 78.2565 70.1093C79.8729 70.0374 80.8308 69.3556 81.399 67.8319C81.8002 66.7535 82.802 66.2688 83.95 66.2618C85.1003 66.2549 86.1231 66.735 86.515 67.8064L86.5104 67.8087ZM69.78 49.7239C71.3895 49.5129 72.287 48.882 72.9758 47.3908C73.9591 45.2618 77.025 45.2572 78.0292 47.3792C78.725 48.8496 79.5807 49.6242 81.2227 49.703C82.373 49.7587 83.143 50.5634 83.4862 51.6581C83.8387 52.7806 83.6648 53.9007 82.7348 54.6243C81.4825 55.5983 81.174 56.6953 81.5868 58.1935C81.8837 59.2742 81.4175 60.2367 80.5478 60.9417C79.6712 61.6514 78.5649 61.9273 77.6466 61.3452C76.1437 60.392 74.9123 60.4871 73.3631 61.3313C71.5286 62.3285 69.3486 60.726 69.3695 58.3929C69.4298 58.0242 69.4947 57.4235 69.6292 56.8391C69.7475 56.3312 69.6199 55.9532 69.2419 55.6123C68.8662 55.2737 68.4975 54.9235 68.1612 54.5478C66.5865 52.7875 67.4376 50.0254 69.7753 49.7193L69.78 49.7239ZM67.4886 91.7146C67.8481 90.5852 68.6459 89.8129 69.8263 89.748C71.3709 89.6645 72.3218 89.0406 72.8621 87.5494C73.261 86.4432 74.2675 85.9191 75.448 85.9144C76.6284 85.9075 77.6466 86.42 78.0501 87.5239C78.6021 89.0383 79.5715 89.639 81.1392 89.7642C82.6142 89.8802 83.579 91.158 83.5882 92.6029C83.6091 93.5329 83.2473 94.3237 82.5353 94.878C81.501 95.6874 81.1067 96.5849 81.4987 97.923C81.8628 99.1661 81.4871 100.328 80.3739 101.11C79.27 101.886 78.0686 101.88 76.9925 101.135C75.9025 100.381 74.9656 100.456 73.9057 101.161C72.9387 101.803 71.8672 101.854 70.8236 101.281C69.7405 100.685 69.0703 99.5117 69.3811 98.3173C69.7753 96.8006 69.5133 95.6734 68.2261 94.6808C67.2938 93.9619 67.1315 92.8394 67.4886 91.7146ZM46.971 43.984C47.0267 42.7942 47.7688 41.739 48.8843 41.3425C49.1093 41.2636 49.3528 41.1778 49.5847 41.1824C51.0435 41.2242 51.9015 40.5447 52.4118 39.1671C52.8362 38.0191 53.8009 37.4115 55.0649 37.3999C56.359 37.3906 57.3493 38.0005 57.7829 39.1764C58.2932 40.5655 59.1768 41.1013 60.6146 41.2033C62.187 41.3146 63.2005 42.567 63.2144 44.144C63.2469 45.0276 62.8573 45.8347 62.1198 46.3936C61.0762 47.1891 60.8303 48.0889 61.1179 49.3876C61.5493 51.3241 60.5335 52.82 58.7593 53.0774C58.1981 53.1586 57.4699 53.1076 57.0315 52.8084C55.6864 51.883 54.5315 51.9967 53.1446 52.8084C51.5699 53.7291 49.5615 52.7968 49.1023 51.0783C48.9423 50.4776 48.9353 49.7633 49.0977 49.165C49.3945 48.0703 49.1673 47.2841 48.2651 46.5884C47.4348 45.9506 46.9177 45.0995 46.9687 43.9817L46.971 43.984ZM49.3621 99.0061C50.9692 98.7834 51.8714 98.1689 52.5602 96.6753C53.5435 94.544 56.628 94.5278 57.609 96.6568C58.314 98.1874 59.2533 98.8391 60.8744 99.0038C62.3262 99.1522 63.2191 100.421 63.2121 101.856C63.226 102.673 62.9732 103.45 62.3331 103.909C61.0112 104.862 60.8605 106.015 61.1596 107.538C61.5562 109.568 59.6754 111.272 57.7041 110.801C57.0408 110.644 56.417 110.275 55.8093 109.941C55.3154 109.67 54.8863 109.628 54.397 109.941C53.9934 110.198 53.5505 110.398 53.1145 110.595C52.0871 111.059 51.0852 110.975 50.1761 110.319C49.2438 109.646 48.715 108.675 49.0096 107.561C49.42 106.012 49.0281 104.957 47.8361 103.858C46.0758 102.234 46.9872 99.3377 49.3621 99.0061ZM40.9064 98.2918C41.303 100.321 39.4221 102.026 37.4509 101.555C36.7876 101.397 36.1637 101.028 35.5561 100.694C35.0621 100.423 34.6331 100.381 34.1437 100.694C33.7402 100.952 33.2972 101.151 32.8612 101.348C31.8338 101.812 30.832 101.729 29.9229 101.072C28.9906 100.4 28.4618 99.4282 28.7586 98.315C29.1691 96.7658 28.7772 95.7105 27.5851 94.6113C25.8249 92.9879 26.7363 90.0912 29.1112 89.7596C30.7183 89.5369 31.6205 88.9224 32.3093 87.4288C33.2926 85.2975 36.3771 85.2813 37.3581 87.4103C38.0631 88.9409 39.0024 89.5926 40.6235 89.7573C42.0753 89.9057 42.9681 91.1743 42.9612 92.6098C42.9751 93.4262 42.7223 94.2031 42.0822 94.6623C40.7603 95.6155 40.6096 96.7681 40.9087 98.2918H40.9064ZM26.6853 51.6998C27.0239 50.5704 27.8078 49.7517 28.9906 49.6984C30.614 49.6265 31.5555 48.9238 32.1214 47.4071C32.525 46.331 33.5361 45.8463 34.6795 45.8416C35.8251 45.8393 36.8386 46.3356 37.2398 47.4047C37.808 48.9238 38.7542 49.6149 40.3684 49.6961C41.5465 49.7564 42.3188 50.5681 42.6736 51.6975C43.0215 52.8084 42.8174 53.8891 41.9361 54.6011C40.7278 55.5775 40.4147 56.6188 40.7371 58.1564C41.136 60.0627 39.7329 61.5818 37.4462 61.5795C37.0404 61.4009 36.2356 61.104 35.4912 60.6982C34.9183 60.3851 34.4336 60.3503 33.8817 60.7051C33.5013 60.9533 33.0862 61.1574 32.6664 61.3336C31.6066 61.7789 30.5838 61.6792 29.6724 60.9649C28.7656 60.2552 28.2902 59.2742 28.6033 58.1657C29.0184 56.6883 28.7076 55.6123 27.4785 54.6568C26.5462 53.9309 26.349 52.8223 26.6853 51.6975V51.6998ZM19.8786 75.9443C19.1225 75.2718 18.385 74.576 18.0859 73.5533V72.396C18.5914 70.7494 19.7696 69.9771 21.4278 69.9493C22.476 69.9308 22.9561 69.3579 23.3017 68.479C23.7469 67.3495 24.4682 66.4845 25.7669 66.299C27.0494 66.1157 28.2994 66.5981 28.7633 67.8018C29.3616 69.3486 30.3496 69.9377 31.9614 70.1256C34.2064 70.3876 35.1108 73.1428 33.6428 74.8659C33.3459 75.2138 33.0305 75.557 32.6711 75.833C32.0936 76.2783 32.0147 76.8163 32.1237 77.4959C32.2397 78.2218 32.3928 78.994 32.2629 79.6991C31.922 81.5451 29.8695 82.6514 28.2647 81.7144C26.799 80.8587 25.6579 80.8957 24.1806 81.7075C22.2464 82.7696 20.0038 81.1416 20.0966 78.9198C20.1175 78.3934 20.2033 77.8623 20.3308 77.3521C20.4769 76.7653 20.3215 76.3409 19.8763 75.9443H19.8786ZM22.1166 131.351C22.7451 131.184 23.4385 131.229 24.1018 131.229C40.1666 131.224 56.2314 131.224 72.2962 131.224C72.5398 131.224 72.781 131.219 73.0245 131.224C75.114 131.263 76.3061 132.207 76.2922 133.81C76.2806 135.41 75.114 136.312 72.9827 136.314C64.7381 136.324 56.4935 136.317 48.2489 136.317C40.1852 136.317 32.1237 136.317 24.06 136.317C23.515 136.317 22.9631 136.354 22.425 136.282C21.1286 136.108 20.3262 135.375 20.2056 134.042C20.0757 132.62 20.7807 131.704 22.1142 131.349L22.1166 131.351ZM90.7684 149.051C90.4576 149.392 89.6297 149.339 89.0359 149.339C67.215 149.35 45.3963 149.353 23.5753 149.339C22.9236 149.339 22.0168 149.385 21.6736 149.007C21.0173 148.281 20.2636 147.226 20.3401 146.38C20.4073 145.64 21.4881 144.898 22.258 144.353C22.6268 144.091 23.3179 144.274 23.8629 144.274C34.7119 144.274 45.561 144.274 56.41 144.274C67.1384 144.274 77.8669 144.274 88.5953 144.274C89.1403 144.274 89.8384 144.081 90.2002 144.346C91.0026 144.932 92.1088 145.693 92.2062 146.491C92.3013 147.291 91.434 148.323 90.7684 149.051Z" fill="#30429E"/>
<path d="M84.7432 10.7389C76.4198 7.51063 68.1334 4.18263 59.7543 1.11206C57.0896 0.135698 54.397 0.935808 51.9688 2.48733C48.831 4.4934 48.0657 7.83995 46.7786 11.1262H84.6667C84.6922 10.9963 84.7177 10.8688 84.7455 10.7389H84.7432Z" fill="#7790ED"/>
</g>
<defs>
<clipPath id="clip0_736_2775">
<rect width="155.644" height="181.059" fill="white" transform="translate(0.951904 0.685547)"/>
</clipPath>
</defs>
</svg>
