<svg width="542" height="584" viewBox="0 0 542 584" fill="none" xmlns="http://www.w3.org/2000/svg">
<path d="M450.627 482.577C423.787 472.316 407.514 462.002 396.934 449.729C382.952 431.303 376.539 407.325 381.275 382.983C386.253 357.401 407.136 326.849 441.24 317.587C456.897 314.951 471.699 315.654 481.468 317.103C509.038 321.782 535.451 303.698 540.821 276.098C546.271 248.088 527.972 220.949 499.963 215.499C473.339 210.319 451.777 224.089 440.374 252.295C421.804 296.922 385.268 327.277 340.291 321.977C340.135 321.933 339.985 321.862 339.826 321.832C325.713 318.853 313.287 313.683 302.874 306.536C284.979 292.031 274.062 269.601 269.532 248.262C268.435 243.065 268.009 237.724 268.411 232.421C268.693 228.861 269.17 225.284 269.87 221.682C272.648 207.407 282.08 186.799 300.203 171.772C307.255 165.928 316.963 159.875 329.46 156.309C345.225 153.611 360.151 154.311 369.986 155.772C397.556 160.452 423.969 142.368 429.34 114.768C434.789 86.758 416.491 59.6186 388.481 54.1689C361.857 48.9888 340.295 62.7586 328.892 90.9654C309.396 137.822 270.09 168.966 222.013 159.612C173.937 150.258 153.213 94.3437 155.841 58.5964C158.063 32.3962 143.95 10.1379 120.593 2.7317C86.1201 -8.2066 50.9634 19.418 52.921 55.5235C54.0437 76.1442 67.7302 92.856 90.9548 101.715C124.399 114.494 141.447 127.368 151.503 144.017C162.672 162.553 163.045 184.493 163.709 210.776C163.806 214.711 164.24 218.465 164.957 222.028C166.237 229.945 169.457 237.185 174.43 243.506C177.947 248.162 182.222 252.088 187.109 255.189C191.62 258.257 196.732 260.908 202.429 263.085C221.509 270.371 235.255 277.701 245.398 285.741C265.281 304.74 275.409 333.124 269.779 362.057C267.713 372.678 263.681 382.423 258.174 391.019C236.652 418.804 205.702 434.376 169.843 427.399C121.766 418.045 101.032 362.183 103.663 326.423C105.885 300.222 91.7713 277.964 68.4146 270.558C33.9576 259.609 -1.19657 287.22 0.771668 323.342C1.89695 343.949 15.5809 360.674 38.7923 369.531C72.2361 382.309 95.8812 396.467 105.94 413.103C116.552 430.696 111.469 450.205 111.497 474.625C111.5 474.68 111.492 474.719 111.495 474.775C110.336 487.489 113.961 499.751 121.019 509.573C121.104 509.699 121.202 509.828 121.287 509.954C121.407 510.114 121.513 510.271 121.633 510.432C127.973 519.224 136.953 525.503 147.616 528.756C147.849 528.828 148.094 528.903 148.327 528.976C148.781 529.105 149.248 529.237 149.718 529.356C150.095 529.457 150.486 529.56 150.866 529.648C151.362 529.772 151.864 529.869 152.362 529.98C152.613 530.029 152.848 530.088 153.099 530.137C153.138 530.145 153.165 530.15 153.204 530.158C153.244 530.165 153.27 530.17 153.31 530.178C153.666 530.248 154.025 530.304 154.37 530.357C154.822 530.431 155.257 530.516 155.708 530.59C156.001 530.633 156.296 530.663 156.589 530.707C181.596 534.066 201.787 520.303 212.685 493.354C232.181 446.497 271.487 415.353 319.564 424.707C367.64 434.061 388.375 489.923 385.744 525.683C383.522 551.883 397.635 574.142 420.992 581.548C455.478 592.489 490.632 564.877 488.664 528.756C487.525 508.146 473.839 491.434 450.627 482.577Z" fill="white"/>
</svg>
