<svg width="142" height="141" viewBox="0 0 142 141" fill="none" xmlns="http://www.w3.org/2000/svg">
<path d="M0.973962 26.1174C0.973962 25.024 0.973962 23.9305 0.973962 22.8371C1.06755 22.6401 1.19068 22.4529 1.24979 22.246C2.44668 18.1283 5.4857 15.6508 9.75609 15.3553C10.8003 15.2814 11.8543 15.2715 12.8985 15.3208C13.6423 15.3553 14.0166 15.0992 14.3269 14.3997C15.5632 11.6168 16.834 8.84872 18.1688 6.11016C20.203 1.92843 24.966 -0.01713 29.3644 1.47036C33.7776 2.96278 36.3339 7.39078 35.3735 11.9567C35.1469 13.0403 34.7479 14.0894 34.3884 15.2912C37.7968 15.2912 41.0673 15.3109 44.3428 15.2568C44.658 15.2518 45.0914 14.8135 45.254 14.4736C46.5543 11.7695 47.7955 9.04082 49.0614 6.31703C51.071 1.99739 55.893 -0.0565338 60.3949 1.47529C64.8081 2.97756 67.3792 7.52377 66.3695 12.1242C66.1479 13.1339 65.7637 14.1091 65.3942 15.2863C68.7978 15.2863 72.1077 15.3011 75.4176 15.2568C75.6786 15.2568 76.0481 14.9218 76.1811 14.6509C77.3878 12.1537 78.6536 9.68113 79.7077 7.11496C81.7567 2.12545 86.889 -0.292956 91.7357 1.5738C96.5036 3.41593 98.7742 8.67633 96.9468 13.6461C96.7695 14.1338 96.5774 14.6165 96.3213 15.2814C99.8283 15.2814 103.104 15.3011 106.379 15.2518C106.67 15.2518 107.074 14.8726 107.216 14.5721C108.492 11.9074 109.748 9.23291 110.95 6.53375C112.634 2.76576 116.644 0.445864 120.574 1.02214C124.815 1.64275 128.174 4.82954 128.49 9.02604C128.642 11.0406 128.007 13.1142 127.697 15.3947C129.268 15.3947 131.085 15.2666 132.883 15.4193C137.336 15.7986 140.862 19.6306 141.01 24.098C141.178 29.1121 137.429 33.2742 132.391 33.5598C130.371 33.6731 128.337 33.5795 126.032 33.5795C128.278 37.7169 129.411 41.8396 129.632 46.3316C130.563 46.3316 131.376 46.307 132.184 46.3316C136.858 46.4892 140.68 50.1636 141 54.7935C141.32 59.4678 138.119 63.7284 133.494 64.3933C131.125 64.7332 128.682 64.61 126.268 64.61C125.46 64.61 125.061 64.876 124.756 65.6148C123.269 69.2153 123.303 72.7814 124.815 76.3671C125.111 77.0665 125.475 77.3177 126.229 77.298C128.14 77.2439 130.056 77.2439 131.972 77.2931C137.08 77.4261 141.054 81.4995 141.02 86.5284C140.986 91.5031 137.03 95.4583 131.957 95.5913C131.204 95.611 130.445 95.5913 129.613 95.5913C129.44 100.157 128.258 104.255 126.032 108.393C128.598 108.393 130.829 108.235 133.036 108.422C138.04 108.851 141.793 113.919 140.907 118.859C140.069 123.524 136.523 126.479 131.568 126.612C130.194 126.646 128.815 126.617 127.307 126.617C127.642 127.567 127.913 128.242 128.115 128.932C129.317 132.971 128.16 136.808 124.835 139.108C123.633 139.94 122.141 140.354 120.781 140.96H117.772C117.442 140.832 117.122 140.689 116.787 140.581C114.038 139.684 112.083 137.916 110.896 135.271C110.063 133.404 108.955 131.626 108.379 129.69C107.566 126.947 105.916 126.272 103.266 126.572C101.035 126.824 98.7545 126.622 96.4937 126.622C96.4937 126.937 96.4592 127.085 96.4986 127.203C98.8776 134.404 97.0158 138.27 89.8689 140.96H86.8595C83.8993 140.118 81.4562 138.591 80.0919 135.709C78.8112 133 77.5503 130.276 76.3534 127.528C76.0431 126.814 75.659 126.597 74.9251 126.607C72.1028 126.641 69.2755 126.617 66.4532 126.627C66.1183 126.627 65.7834 126.701 65.3549 126.75C65.5666 127.336 65.7341 127.804 65.9016 128.267C67.9161 133.739 65.1677 139.113 59.5477 140.689C59.3408 140.748 59.1537 140.866 58.9567 140.96H55.9472C52.9722 140.157 50.5045 138.66 49.1254 135.783C47.8349 133.079 46.5642 130.36 45.3722 127.612C45.0471 126.858 44.6629 126.592 43.865 126.607C41.2693 126.651 38.6785 126.622 36.0827 126.622C35.5262 126.622 34.9696 126.622 34.2652 126.622C34.5953 127.484 34.8415 128.065 35.0435 128.666C36.4128 132.71 35.009 137.098 31.4824 139.349C30.3593 140.068 29.0098 140.433 27.7685 140.965H24.7591C24.4291 140.837 24.104 140.694 23.774 140.585C21.0256 139.689 19.0652 137.931 17.8831 135.286C17.0507 133.424 15.972 131.641 15.3613 129.71C14.5436 127.134 13.0759 126.444 10.4062 126.538C5.70734 126.705 2.52056 124.031 1.21531 119.549C1.16606 119.386 1.04784 119.243 0.964111 119.091C0.964111 117.997 0.964111 116.904 0.964111 115.81C1.06755 115.569 1.19068 115.333 1.26949 115.086C2.47623 111.042 5.67779 108.53 9.88907 108.333C10.7067 108.294 11.5391 108.393 12.342 108.274C12.7212 108.22 13.2187 107.88 13.3763 107.54C14.4648 105.196 15.4943 102.822 16.504 100.438C17.1492 98.911 17.7255 97.3595 18.42 95.5962C15.3268 95.5962 12.5932 95.675 9.86937 95.5765C6.06198 95.4386 3.35297 93.5324 1.74234 90.0895C1.42711 89.3999 1.23009 88.6463 0.973962 87.9223C0.973962 86.9175 0.973962 85.9176 0.973962 84.9128C1.04784 84.7995 1.15128 84.6961 1.18576 84.573C2.55011 79.7805 5.80093 77.303 10.751 77.2882C11.411 77.2882 12.0711 77.2882 12.539 77.2882V64.6347C11.7805 64.6347 10.9283 64.6544 10.0713 64.6347C6.20974 64.5361 2.8752 62.1965 1.55517 58.665C1.35322 58.1182 1.16606 57.5666 0.973962 57.0199C0.973962 56.0151 0.973962 55.0152 0.973962 54.0104C2.39742 48.4791 6.39199 45.9129 12.0661 46.2971C14.056 46.4301 16.0656 46.3168 18.4101 46.3168C17.7452 44.6077 17.1739 43.1005 16.5729 41.6031C16.0558 40.3127 16.3759 39.2241 17.4743 38.702C18.5382 38.1947 19.5775 38.569 20.2129 39.7364C22.252 43.4699 23.0401 47.4891 22.0648 51.6117C21.4787 54.0941 20.3754 56.5027 19.2031 58.7881C16.3267 64.3933 15.9967 70.2792 16.8882 76.3425C16.9374 76.6824 17.361 77.234 17.6171 77.2389C20.9271 77.298 24.2321 77.2783 27.6897 77.2783C25.6949 71.6584 26.5224 66.5162 29.1772 61.4676C33.817 52.6559 33.7826 43.79 29.1477 34.934C28.6354 33.9588 28.1035 33.5697 26.9755 33.5845C21.4639 33.6485 15.9523 33.6436 10.4407 33.6042C5.75167 33.5697 2.54026 31.0725 1.22024 26.5706C1.17098 26.408 1.05277 26.2652 0.969037 26.1125L0.973962 26.1174ZM95.1737 108.058C95.4643 108.2 95.5431 108.274 95.6219 108.274C104.005 108.289 112.388 108.309 120.771 108.279C121.116 108.279 121.589 107.925 121.786 107.6C125.268 101.96 126.051 95.7932 125.298 89.326C124.874 85.7206 123.293 82.5535 121.727 79.3618C119.491 74.8156 118.757 70.1216 120.5 65.2159C120.555 65.0681 120.505 64.8908 120.505 64.6396C117.988 64.6396 115.536 64.6396 113.078 64.6396C109.743 64.6396 109.792 64.6396 109.536 68.0086C109.078 74.0719 110.231 79.7312 113.201 85.0951C116.181 90.4688 116.22 96.0444 113.521 101.6C112.772 103.137 111.689 103.644 110.497 103.029C109.379 102.452 109.182 101.349 109.807 99.8419C110.359 98.517 110.812 97.1477 111.344 95.6947H98.6166C98.3752 100.093 97.3212 104.206 95.1638 108.053L95.1737 108.058ZM74.4079 77.2882C74.4079 74.2098 74.3389 71.3087 74.4226 68.4076C74.5606 63.6545 76.2106 59.3545 78.4418 55.2122C79.2151 53.774 79.6978 52.1781 80.3578 50.5478H36.9102C36.1271 53.9907 35.3833 57.2514 34.6347 60.5416C35.0484 60.5416 35.5951 60.5416 36.1369 60.5416C46.574 60.5416 57.0062 60.5416 67.4433 60.5465C68.9258 60.5465 69.8518 61.3641 69.8567 62.5709C69.8567 63.7776 68.9209 64.6051 67.458 64.6347C66.3202 64.6593 65.1726 64.5706 64.0447 64.679C63.6211 64.7184 63.03 65.0878 62.8626 65.4621C61.1928 69.1562 61.2519 72.875 62.9167 76.5592C63.0645 76.8843 63.5521 77.2537 63.8871 77.2586C67.4777 77.3079 71.0733 77.2882 74.4128 77.2882H74.4079ZM79.3481 33.6288C80.5549 36.2147 81.5991 38.4804 82.663 40.7313C84.7464 45.1445 85.0912 49.6513 83.3131 54.232C82.6876 55.8377 81.9537 57.409 81.1607 58.9408C78.2891 64.477 77.9345 70.3285 78.9245 76.3523C78.9787 76.6922 79.3826 77.2389 79.6289 77.2439C82.9339 77.303 86.2389 77.2833 89.4601 77.2833C89.135 75.2638 88.6573 73.402 88.5637 71.5155C88.3765 67.718 89.7901 64.3145 91.4746 60.9898C96.0307 52.0057 95.617 43.1251 90.8196 34.3627C90.6521 34.0524 90.2581 33.6633 89.9625 33.6583C86.559 33.6091 83.1555 33.6288 79.3531 33.6288H79.3481ZM48.2979 108.304C52.0856 108.304 55.4891 108.324 58.8877 108.274C59.1931 108.274 59.592 107.91 59.7694 107.604C62.0646 103.694 63.3847 99.507 63.557 94.9362C63.7639 89.459 62.4685 84.4203 59.8531 79.6229C58.1538 76.505 57.2327 73.1065 57.5972 69.5059C57.7598 67.9002 58.1735 66.3192 58.474 64.7233H48.0221C47.9088 65.3833 47.7955 65.9645 47.7167 66.5457C46.8843 72.8602 47.7364 78.8545 50.9084 84.4843C54.3612 90.6116 54.2824 96.7881 50.8395 102.945C49.9332 104.561 49.2338 106.294 48.2881 108.299L48.2979 108.304ZM105.552 19.4927C105.443 19.473 105.227 19.4089 105.01 19.4089C91.3515 19.404 77.6882 19.3942 64.0299 19.4336C63.6211 19.4336 63.0251 19.8473 62.8379 20.2266C61.6164 22.7189 61.4686 25.3589 61.8528 28.0827C62.0154 29.2254 62.4784 29.5456 63.6211 29.5406C77.0972 29.5012 90.5782 29.516 104.054 29.5111C104.493 29.5111 104.931 29.4569 105.552 29.4175V19.4877V19.4927ZM74.5507 112.53C74.068 112.481 73.7577 112.422 73.4523 112.422C59.7349 112.422 46.0125 112.427 32.2951 112.397C31.3395 112.397 31.0194 112.786 30.8814 113.609C30.4529 116.18 30.7091 118.672 31.5759 121.14C31.9453 122.194 32.4773 122.573 33.6397 122.568C46.8597 122.524 60.0747 122.539 73.2947 122.539H74.5556V112.535L74.5507 112.53ZM113.157 112.412C106.916 112.412 100.675 112.427 94.4299 112.397C93.5975 112.397 93.0705 112.52 92.903 113.471C92.445 116.091 92.6174 118.623 93.5581 121.125C93.9423 122.149 94.4595 122.563 95.6317 122.558C107.384 122.504 119.141 122.529 130.893 122.524C131.484 122.524 132.08 122.504 132.661 122.41C134.641 122.095 135.971 120.938 136.626 119.076C137.804 115.712 135.37 112.456 131.607 112.427C125.455 112.377 119.308 112.412 113.157 112.412ZM84.313 95.6701C84.0273 99.2607 82.0768 102.127 80.7125 105.24C77.5454 112.486 77.5651 119.815 80.6288 127.1C81.5104 129.193 82.6088 131.193 83.5102 133.281C84.7908 136.251 87.6131 137.61 90.3566 136.478C93.0508 135.364 94.1886 132.463 92.9671 129.518C92.1494 127.548 91.189 125.632 90.2728 123.701C88.0317 118.977 87.9825 114.214 90.0216 109.432C90.6816 107.885 91.4549 106.388 92.1987 104.881C93.6172 101.994 94.3758 98.9603 94.4644 95.675H84.313V95.6701ZM67.9112 91.4095H111.339C110.753 89.8925 110.285 88.5232 109.709 87.2032C109.049 85.7058 108.206 84.2873 107.601 82.7702C107.192 81.7556 106.704 81.3566 105.542 81.3616C92.6518 81.4108 79.7619 81.3911 66.8719 81.3911H65.6307C66.3991 84.7503 67.1526 88.0503 67.9161 91.4095H67.9112ZM63.4142 46.2626C63.4142 45.9178 63.4241 45.6962 63.4142 45.4696C63.227 41.6031 61.8725 38.0913 60.0304 34.7616C56.6023 28.5555 56.8535 22.4233 60.1486 16.2665C60.9416 14.7888 61.7051 13.2669 62.2222 11.6809C63.1039 8.98171 61.7149 6.29733 59.1635 5.37134C56.5974 4.44535 53.8736 5.65702 52.7013 8.21334C51.7753 10.2377 50.8001 12.2424 49.879 14.2667C46.5445 21.5909 46.5445 28.989 49.5983 36.3723C50.9478 39.628 52.9821 42.6079 53.3416 46.2626H63.4191H63.4142ZM125.475 46.2626C125.411 45.4598 125.377 44.7801 125.298 44.1102C124.899 40.7067 123.589 37.6135 121.973 34.6434C118.673 28.5802 118.855 22.5563 122.047 16.5177C122.855 14.9957 123.648 13.4393 124.209 11.8139C125.15 9.08022 123.766 6.30718 121.175 5.37134C118.565 4.42565 115.851 5.68164 114.664 8.3414C113.866 10.1244 113.019 11.8877 112.176 13.6511C108.468 21.389 108.423 29.2008 111.871 36.9929C113.211 40.0171 114.984 42.8542 115.358 46.2676H125.475V46.2626ZM22.3308 95.6947C22.0156 99.0145 20.3212 101.792 18.9667 104.713C15.509 112.185 15.4647 119.746 18.7204 127.306C19.6169 129.395 20.6562 131.419 21.5772 133.493C22.8037 136.276 25.6407 137.566 28.2956 136.497C30.9504 135.428 32.1768 132.493 31.0243 129.685C30.2461 127.794 29.3151 125.972 28.4089 124.134C26.5224 120.307 25.9461 116.268 27.0544 112.19C27.7242 109.722 28.9851 107.403 30.0934 105.063C31.4873 102.108 32.3689 99.0539 32.4428 95.6898H22.3357L22.3308 95.6947ZM49.3274 91.508C48.7954 90.0501 48.4014 88.7645 47.8645 87.5381C47.1158 85.8339 46.1898 84.2036 45.4756 82.4846C45.121 81.6275 44.6875 81.3615 43.7714 81.3665C32.7482 81.401 21.725 81.3911 10.7018 81.3911C10.3816 81.3911 10.0615 81.3813 9.74623 81.4108C7.25394 81.662 5.30838 83.5977 5.09658 86.0211C4.88479 88.469 6.47079 90.7446 8.87935 91.3356C9.57384 91.508 10.3225 91.5031 11.0466 91.5031C23.2568 91.513 35.4621 91.508 47.6724 91.508H49.3274ZM96.6513 60.5416C100.868 60.5416 105.148 60.5416 109.428 60.5416C116.811 60.5416 124.195 60.5613 131.578 60.5317C135.356 60.5169 137.838 57.1282 136.607 53.7395C135.848 51.6462 134.006 50.4296 131.469 50.4247C120.85 50.4148 110.231 50.4197 99.6115 50.4247C99.3062 50.4247 98.9958 50.4838 98.922 50.4887C98.1536 53.8873 97.4148 57.1479 96.6464 60.5366L96.6513 60.5416ZM43.5448 19.4582C43.2542 19.4385 42.8947 19.3991 42.54 19.3991C31.97 19.3991 21.3999 19.3991 10.8298 19.3991C10.3324 19.3991 9.82504 19.4237 9.33249 19.5025C7.35738 19.8227 6.01765 20.9703 5.36256 22.8321C4.14597 26.2948 6.67274 29.4914 10.6427 29.5012C21.1192 29.5209 31.6006 29.5111 42.0771 29.5012C42.5105 29.5012 42.9439 29.452 43.5399 29.4175V19.4434L43.5448 19.4582ZM105.552 64.6445C102.025 64.6445 98.4393 64.6149 94.8535 64.6888C94.4792 64.6987 93.9571 65.2306 93.7748 65.6394C92.2233 69.1513 92.2923 72.6829 93.7256 76.2292C94.0408 77.0074 94.4496 77.3325 95.3264 77.3128C98.0994 77.2537 100.872 77.2931 103.65 77.2931C104.35 77.2931 105.049 77.2931 105.547 77.2931V64.6494L105.552 64.6445ZM43.5695 64.6494C40.033 64.6494 36.3635 64.6297 32.694 64.6888C32.3936 64.6888 31.9897 65.1814 31.8321 65.5311C30.4529 68.5947 30.2559 71.7421 31.2952 74.9535C32.0537 77.2882 32.0439 77.2931 34.4229 77.2931C35.2405 77.2931 36.0581 77.2931 36.8757 77.2931H43.5695V64.6494ZM80.412 46.2725C79.7225 44.5338 79.161 43.0217 78.5354 41.5391C77.5257 39.1552 76.5111 36.7762 75.4028 34.4366C75.2206 34.0524 74.5753 33.6682 74.137 33.6583C71.1324 33.5894 68.123 33.6189 65.1184 33.6288C64.8229 33.6288 64.5274 33.7174 64.1087 33.7864C66.3202 37.7268 67.3644 41.8888 67.6304 46.2725H80.412ZM33.0339 33.6239C35.2947 37.7416 36.3734 41.8839 36.6295 46.2528H49.2485C48.9432 45.2381 48.7511 44.3023 48.3866 43.4403C47.0863 40.3422 45.7416 37.2589 44.3723 34.1903C44.259 33.9342 43.8502 33.6485 43.5793 33.6485C40.1758 33.614 36.7674 33.6239 33.0339 33.6239ZM64.025 108.304C67.7585 108.304 71.2063 108.314 74.6492 108.284C74.8857 108.284 75.2304 108.018 75.3339 107.792C76.7228 104.684 78.1069 101.576 79.4319 98.4382C79.7865 97.5959 79.9392 96.6699 80.2052 95.7095H67.6058C67.3841 100.113 66.3252 104.221 64.025 108.309V108.304ZM36.5851 95.6602C36.4423 100.128 35.2503 104.231 33.0684 108.304C36.7723 108.304 40.2152 108.314 43.6631 108.279C43.8946 108.279 44.2344 108.003 44.3378 107.772C45.7318 104.664 47.1158 101.551 48.4408 98.4136C48.7954 97.5713 48.9481 96.6453 49.2239 95.6602H36.5901H36.5851ZM111.305 46.2676C110.896 45.0559 110.605 43.9181 110.137 42.8591C109.275 40.9086 108.285 39.0173 107.404 37.0766C106.901 35.9733 106.818 34.343 105.99 33.8209C105.074 33.2397 103.532 33.6337 102.261 33.6239C99.9612 33.614 97.661 33.6239 95.021 33.6239C97.336 37.7268 98.3555 41.9085 98.656 46.2725H111.31L111.305 46.2676ZM128.593 29.516C128.593 29.516 128.593 29.4717 128.593 29.4471C129.908 29.4471 131.238 29.5505 132.543 29.4274C134.976 29.1959 136.838 27.0779 136.912 24.625C136.986 22.1081 135.203 19.7833 132.716 19.5518C130.415 19.3351 128.086 19.404 125.771 19.4483C125.431 19.4533 124.973 19.9557 124.791 20.3349C123.569 22.8863 123.49 25.5756 123.904 28.329C124.047 29.2993 124.51 29.6096 125.455 29.5357C126.495 29.4569 127.544 29.516 128.588 29.516H128.593ZM18.3954 50.5084C15.0904 50.5084 12.0908 50.336 9.1207 50.5626C6.86483 50.735 5.18524 52.9465 5.08673 55.227C4.98822 57.5272 6.46587 59.6993 8.67248 60.2657C9.6231 60.512 10.6574 60.4037 11.6376 60.5465C13.2827 60.7878 14.3516 60.3544 14.8293 58.5763C15.1298 57.4582 15.8932 56.4781 16.3661 55.3994C17.0556 53.838 17.6763 52.2471 18.3904 50.5035L18.3954 50.5084ZM49.4505 126.637C50.7607 129.439 51.8295 132.04 53.1692 134.503C54.1691 136.335 55.9817 137.083 58.0504 136.813C60.1732 136.532 61.6016 135.281 62.2666 133.222C63.0399 130.828 61.7248 128.907 60.7692 126.917C60.6904 126.75 60.3013 126.651 60.055 126.651C56.6072 126.637 53.1544 126.641 49.4554 126.641L49.4505 126.637ZM18.4249 15.2863C22.1338 15.2863 25.6654 15.3011 29.1969 15.2617C29.4629 15.2617 29.852 14.9268 29.9702 14.6509C30.4825 13.4934 31.0538 12.336 31.3444 11.1144C31.9158 8.74036 30.6155 6.40569 28.3793 5.46492C26.1579 4.53401 23.444 5.1891 22.2619 7.2972C20.8483 9.80919 19.7449 12.4936 18.42 15.2863H18.4249ZM80.4367 15.2962C83.2885 15.2962 85.8793 15.2962 88.4701 15.2962C92.0263 15.2962 92.4105 15.0006 93.3365 11.5282C93.9916 9.08022 92.7897 6.53868 90.4994 5.51418C88.2534 4.50938 85.4656 5.16939 84.2539 7.32675C82.86 9.80427 81.7813 12.4591 80.4416 15.2962H80.4367ZM111.462 126.637C112.743 129.395 113.807 132 115.142 134.468C116.324 136.65 119.057 137.418 121.333 136.487C123.613 135.557 124.924 133.163 124.328 130.715C124.042 129.538 123.505 128.405 122.978 127.306C122.825 126.991 122.303 126.671 121.949 126.666C118.535 126.617 115.127 126.637 111.462 126.637ZM129.943 91.5031C130.445 91.5031 131.164 91.5228 131.883 91.5031C134.71 91.4144 136.848 89.3162 136.907 86.5875C136.966 83.8736 134.893 81.5881 132.12 81.4256C130.583 81.3369 129.036 81.4108 127.623 81.4108C128.376 84.706 129.125 87.9617 129.938 91.508L129.943 91.5031ZM12.5291 112.589C9.15518 112.047 6.97319 112.84 5.76152 114.934C4.72225 116.726 4.87494 118.943 6.15064 120.563C7.55932 122.356 10.1403 123.041 12.5291 122.346V112.589Z" fill="#30429E"/>
</svg>
