<svg width="53" height="53" viewBox="0 0 53 53" fill="none" xmlns="http://www.w3.org/2000/svg">
<path d="M26.1425 31.1899C21.5169 31.1899 17.7383 27.4329 17.7383 22.7856C17.7383 18.1383 21.5169 14.4031 26.1425 14.4031C30.7682 14.4031 34.5468 18.16 34.5468 22.8073C34.5468 27.4547 30.7682 31.1899 26.1425 31.1899ZM26.1425 17.6605C23.3194 17.6605 20.9957 19.9625 20.9957 22.8073C20.9957 25.6522 23.2977 27.9541 26.1425 27.9541C28.9874 27.9541 31.2893 25.6522 31.2893 22.8073C31.2893 19.9625 28.9657 17.6605 26.1425 17.6605Z" fill="#B4C7F2"/>
<path d="M26.1425 49.8444C22.9285 49.8444 19.6927 48.6283 17.1736 46.2178C10.7673 40.0503 3.68771 30.2127 6.35883 18.5076C8.76936 7.88823 18.0423 3.13232 26.1425 3.13232C26.1425 3.13232 26.1425 3.13232 26.1642 3.13232C34.2645 3.13232 43.5374 7.88823 45.9479 18.5293C48.5973 30.2345 41.5178 40.0503 35.1114 46.2178C32.5923 48.6283 29.3566 49.8444 26.1425 49.8444ZM26.1425 6.38979C19.823 6.38979 11.7011 9.75584 9.55115 19.2242C7.20578 29.4527 13.6338 38.2695 19.4539 43.8507C23.2108 47.4773 29.096 47.4773 32.8529 43.8507C38.6512 38.2695 45.0793 29.4527 42.7773 19.2242C40.6057 9.75584 32.462 6.38979 26.1425 6.38979Z" fill="#30429E"/>
</svg>
