<svg width="56" height="55" viewBox="0 0 56 55" fill="none" xmlns="http://www.w3.org/2000/svg">
<g clip-path="url(#clip0_632_2221)">
<path d="M20.5787 40.505C23.8773 40.505 26.5514 37.8309 26.5514 34.5323C26.5514 31.2337 23.8773 28.5596 20.5787 28.5596C17.28 28.5596 14.606 31.2337 14.606 34.5323C14.606 37.8309 17.28 40.505 20.5787 40.505Z" fill="#30429E"/>
<path d="M20.4791 11.9455C23.7777 11.9455 26.4518 9.27137 26.4518 5.97273C26.4518 2.67408 23.7777 0 20.4791 0C17.1804 0 14.5063 2.67408 14.5063 5.97273C14.5063 9.27137 17.1804 11.9455 20.4791 11.9455Z" fill="#9BA9F5"/>
<path d="M35.2962 25.8534C38.5949 25.8534 41.2689 23.1793 41.2689 19.8807C41.2689 16.582 38.5949 13.908 35.2962 13.908C31.9976 13.908 29.3235 16.582 29.3235 19.8807C29.3235 23.1793 31.9976 25.8534 35.2962 25.8534Z" fill="#9BA9F5"/>
<path d="M35.2962 54.6206C38.5949 54.6206 41.2689 51.9465 41.2689 48.6479C41.2689 45.3493 38.5949 42.6752 35.2962 42.6752C31.9976 42.6752 29.3235 45.3493 29.3235 48.6479C29.3235 51.9465 31.9976 54.6206 35.2962 54.6206Z" fill="#9BA9F5"/>
<path d="M50.0272 40.505C53.3258 40.505 55.9999 37.8309 55.9999 34.5323C55.9999 31.2337 53.3258 28.5596 50.0272 28.5596C46.7285 28.5596 44.0544 31.2337 44.0544 34.5323C44.0544 37.8309 46.7285 40.505 50.0272 40.505Z" fill="#9BA9F5"/>
<path d="M5.97273 25.8534C9.27137 25.8534 11.9455 23.1793 11.9455 19.8807C11.9455 16.582 9.27137 13.908 5.97273 13.908C2.67408 13.908 0 16.582 0 19.8807C0 23.1793 2.67408 25.8534 5.97273 25.8534Z" fill="#9BA9F5"/>
<path d="M5.97273 54.6206C9.27137 54.6206 11.9455 51.9465 11.9455 48.6479C11.9455 45.3493 9.27137 42.6752 5.97273 42.6752C2.67408 42.6752 0 45.3493 0 48.6479C0 51.9465 2.67408 54.6206 5.97273 54.6206Z" fill="#9BA9F5"/>
<path d="M50.0272 11.9455C53.3258 11.9455 55.9999 9.27137 55.9999 5.97273C55.9999 2.67408 53.3258 0 50.0272 0C46.7285 0 44.0544 2.67408 44.0544 5.97273C44.0544 9.27137 46.7285 11.9455 50.0272 11.9455Z" fill="#9BA9F5"/>
<path d="M50.4811 43.3962C47.4862 42.8728 45.5877 42.1305 44.241 41.0696C42.4165 39.4385 41.266 37.0779 41.266 34.4541C41.266 31.6967 42.8175 28.1017 46.1722 26.4507C47.745 25.8605 49.2965 25.6344 50.3403 25.5875C53.2982 25.5164 55.6759 23.1045 55.6759 20.1295C55.6759 17.1105 53.2271 14.6617 50.208 14.6617C47.3383 14.6617 45.3772 16.5274 44.7629 19.6873C43.7362 24.6973 40.555 28.5881 35.7768 28.9464C35.7597 28.945 35.7427 28.9407 35.7256 28.9407C34.1997 28.9166 32.8047 28.6307 31.5788 28.0989C29.4272 26.9541 27.8402 24.8452 26.9386 22.7206C26.7196 22.2029 26.5674 21.6569 26.502 21.098C26.4593 20.7225 26.4366 20.3414 26.4366 19.9532C26.4366 18.4145 26.9997 16.0837 28.5782 14.1568C29.1926 13.4074 30.0785 12.5826 31.3044 11.9597C32.8871 11.361 34.4514 11.1321 35.5023 11.0851C38.4603 11.014 40.838 8.60218 40.838 5.62719C40.838 2.60812 38.3892 0.159302 35.3701 0.159302C32.5003 0.159302 30.5393 2.02507 29.9249 5.18493C28.847 10.4452 25.3942 14.4739 20.2122 14.4739C15.0301 14.4739 11.748 9.08568 11.2986 5.32002C10.9999 2.55408 9.0844 0.52762 6.50902 0.230406C2.7078 -0.209016 -0.385215 3.37035 0.547668 7.08055C1.08095 9.19945 2.84006 10.6585 5.43108 11.1093C9.16261 11.7606 11.1933 12.7532 12.5742 14.2791C14.1086 15.9785 14.5907 18.2496 15.1908 20.9657C15.2804 21.3724 15.4013 21.7536 15.5477 22.1091C15.8407 22.9054 16.3214 23.5923 16.9656 24.1483C17.4249 24.5607 17.9482 24.8821 18.5185 25.1054C19.0489 25.3329 19.6334 25.505 20.269 25.6159C22.3979 25.9871 23.9736 26.4706 25.1894 27.1006C27.6382 28.672 29.2637 31.4152 29.2637 34.5338C29.2637 35.6785 29.0418 36.7721 28.6437 37.7761C26.9699 41.0967 24.0703 43.3393 20.205 43.3393C15.023 43.3393 11.7408 37.9567 11.2915 34.1896C10.9928 31.4237 9.07729 29.3972 6.50191 29.1C2.70212 28.6592 -0.390904 32.2371 0.543402 35.9487C1.07668 38.0662 2.83579 39.5267 5.42539 39.9775C9.15693 40.6288 11.8987 41.6214 13.2795 43.1459C14.7372 44.7585 14.6035 46.8874 15.0998 49.4229C15.1012 49.4286 15.1012 49.4329 15.1026 49.4386C15.2392 50.7824 15.8634 51.9827 16.7949 52.8601C16.8063 52.8715 16.8191 52.8828 16.8305 52.8942C16.8461 52.9084 16.8603 52.9227 16.876 52.9369C17.7121 53.7219 18.7716 54.1926 19.9448 54.3149C19.9704 54.3177 19.9974 54.3206 20.023 54.3234C20.0728 54.3277 20.124 54.3319 20.1752 54.3348C20.2164 54.3376 20.2591 54.3405 20.3003 54.3419C20.3544 54.3447 20.4084 54.3447 20.4624 54.3462C20.4895 54.3462 20.5151 54.3476 20.5421 54.3476C20.5463 54.3476 20.5492 54.3476 20.5535 54.3476C20.5577 54.3476 20.5606 54.3476 20.5648 54.3476C20.6032 54.3476 20.6416 54.3462 20.6786 54.3447C20.7269 54.3433 20.7739 54.3433 20.8222 54.3419C20.8535 54.3405 20.8848 54.3376 20.9161 54.3362C23.5811 54.1798 25.3999 52.3424 25.9872 49.3234C27.0652 44.0631 30.518 40.0344 35.7 40.0344C40.8821 40.0344 44.1642 45.4169 44.6136 49.184C44.9122 51.95 46.8278 53.9764 49.4031 54.2736C53.2058 54.7131 56.2988 51.1351 55.3645 47.4235C54.8298 45.306 53.0707 43.847 50.4811 43.3962Z" fill="#9BA9F5"/>
</g>
<defs>
<clipPath id="clip0_632_2221">
<rect width="56" height="54.6206" fill="white"/>
</clipPath>
</defs>
</svg>
