<svg width="439" height="77" viewBox="0 0 439 77" fill="none" xmlns="http://www.w3.org/2000/svg">
<path d="M28.689 56.7105C33.2874 56.7105 37.0152 53.0088 37.0152 48.4425C37.0152 43.8762 33.2874 40.1744 28.689 40.1744C24.0906 40.1744 20.3628 43.8762 20.3628 48.4425C20.3628 53.0088 24.0906 56.7105 28.689 56.7105Z" fill="#30429E"/>
<path d="M28.5498 17.1756C33.1482 17.1756 36.876 13.4738 36.876 8.90754C36.876 4.34124 33.1482 0.639526 28.5498 0.639526C23.9514 0.639526 20.2236 4.34124 20.2236 8.90754C20.2236 13.4738 23.9514 17.1756 28.5498 17.1756Z" fill="#9BA9F5"/>
<path d="M49.2061 36.4282C53.8045 36.4282 57.5323 32.7265 57.5323 28.1602C57.5323 23.5939 53.8045 19.8922 49.2061 19.8922C44.6076 19.8922 40.8799 23.5939 40.8799 28.1602C40.8799 32.7265 44.6076 36.4282 49.2061 36.4282Z" fill="#9BA9F5"/>
<path d="M49.2061 76.2504C53.8045 76.2504 57.5323 72.5487 57.5323 67.9824C57.5323 63.4161 53.8045 59.7144 49.2061 59.7144C44.6076 59.7144 40.8799 63.4161 40.8799 67.9824C40.8799 72.5487 44.6076 76.2504 49.2061 76.2504Z" fill="#9BA9F5"/>
<path d="M69.7412 56.7105C74.3396 56.7105 78.0674 53.0088 78.0674 48.4425C78.0674 43.8762 74.3396 40.1744 69.7412 40.1744C65.1428 40.1744 61.415 43.8762 61.415 48.4425C61.415 53.0088 65.1428 56.7105 69.7412 56.7105Z" fill="#9BA9F5"/>
<path d="M8.32789 36.4282C12.9263 36.4282 16.6541 32.7265 16.6541 28.1602C16.6541 23.5939 12.9263 19.8922 8.32789 19.8922C3.72947 19.8922 0.00170898 23.5939 0.00170898 28.1602C0.00170898 32.7265 3.72947 36.4282 8.32789 36.4282Z" fill="#9BA9F5"/>
<path d="M8.32789 76.2504C12.9263 76.2504 16.6541 72.5487 16.6541 67.9824C16.6541 63.4161 12.9263 59.7144 8.32789 59.7144C3.72947 59.7144 0.00170898 63.4161 0.00170898 67.9824C0.00170898 72.5487 3.72947 76.2504 8.32789 76.2504Z" fill="#9BA9F5"/>
<path d="M69.7412 17.1756C74.3396 17.1756 78.0674 13.4738 78.0674 8.90754C78.0674 4.34124 74.3396 0.639526 69.7412 0.639526C65.1428 0.639526 61.415 4.34124 61.415 8.90754C61.415 13.4738 65.1428 17.1756 69.7412 17.1756Z" fill="#9BA9F5"/>
<path d="M70.3744 60.7125C66.1994 59.9881 63.5529 58.9605 61.6755 57.492C59.1321 55.234 57.5283 51.9662 57.5283 48.3341C57.5283 44.5171 59.6911 39.5405 64.3676 37.255C66.5602 36.438 68.723 36.125 70.1781 36.0601C74.3016 35.9617 77.6162 32.6229 77.6162 28.5047C77.6162 24.3254 74.2025 20.9355 69.9938 20.9355C65.9932 20.9355 63.2595 23.5183 62.4031 27.8925C60.9717 34.8278 56.5371 40.2138 49.8761 40.7099C49.8523 40.7079 49.8285 40.702 49.8047 40.702C47.6776 40.6685 45.7328 40.2728 44.024 39.5366C41.0246 37.9519 38.8122 35.0325 37.5553 32.0914C37.25 31.3749 37.0379 30.6189 36.9467 29.8453C36.8873 29.3256 36.8555 28.798 36.8555 28.2606C36.8555 26.1306 37.6406 22.9041 39.8411 20.2367C40.6975 19.1992 41.9325 18.0575 43.6414 17.1952C45.8478 16.3665 48.0285 16.0495 49.4935 15.9845C53.6169 15.8861 56.9316 12.5474 56.9316 8.42916C56.9316 4.24987 53.5178 0.859985 49.3091 0.859985C45.3086 0.859985 42.5748 3.44276 41.7184 7.81693C40.2158 15.0987 35.4024 20.6757 28.1785 20.6757C20.9545 20.6757 16.3791 13.2167 15.7526 8.00394C15.3363 4.17507 12.666 1.36985 9.07584 0.958414C3.77681 0.350124 -0.53496 5.30503 0.765511 10.441C1.50892 13.3742 3.96118 15.394 7.57316 16.018C12.775 16.9196 15.6059 18.2937 17.5309 20.406C19.6699 22.7584 20.342 25.9022 21.1785 29.6622C21.3034 30.2252 21.4719 30.7528 21.6761 31.2449C22.0845 32.3473 22.7546 33.2982 23.6526 34.0679C24.2929 34.6388 25.0225 35.0837 25.8174 35.3927C26.5569 35.7077 27.3716 35.9459 28.2578 36.0994C31.2255 36.6133 33.422 37.2826 35.117 38.1546C38.5307 40.3299 40.7966 44.1273 40.7966 48.4444C40.7966 50.0291 40.4874 51.5429 39.9323 52.9327C37.599 57.5294 33.5568 60.6338 28.1686 60.6338C20.9446 60.6338 16.3692 53.1827 15.7427 47.968C15.3264 44.1391 12.6561 41.3339 9.06592 40.9225C3.76888 40.3122 -0.542889 45.2651 0.759564 50.4031C1.50297 53.3343 3.95523 55.356 7.56523 55.9801C12.7671 56.8817 16.5892 58.2558 18.5142 60.3661C20.5461 62.5984 20.3598 65.5454 21.0517 69.0554C21.0536 69.0632 21.0536 69.0691 21.0556 69.077C21.2459 70.9373 22.1162 72.5988 23.4147 73.8134C23.4306 73.8292 23.4484 73.8449 23.4643 73.8607C23.4861 73.8803 23.5059 73.9 23.5277 73.9197C24.6934 75.0064 26.1703 75.658 27.8058 75.8273C27.8415 75.8312 27.8791 75.8351 27.9148 75.8391C27.9842 75.845 28.0556 75.8509 28.1269 75.8548C28.1844 75.8588 28.2439 75.8627 28.3014 75.8647C28.3767 75.8686 28.4521 75.8686 28.5274 75.8706C28.5651 75.8706 28.6007 75.8725 28.6384 75.8725C28.6443 75.8725 28.6483 75.8725 28.6543 75.8725C28.6602 75.8725 28.6642 75.8725 28.6701 75.8725C28.7236 75.8725 28.7772 75.8706 28.8287 75.8686C28.8961 75.8666 28.9615 75.8666 29.0289 75.8647C29.0726 75.8627 29.1162 75.8588 29.1598 75.8568C32.8748 75.6402 35.4104 73.0968 36.2291 68.9176C37.7318 61.6358 42.5451 56.0588 49.7691 56.0588C56.993 56.0588 61.5685 63.5099 62.1949 68.7246C62.6112 72.5535 65.2815 75.3587 68.8717 75.7702C74.1727 76.3785 78.4845 71.4255 77.182 66.2876C76.4366 63.3563 73.9844 61.3366 70.3744 60.7125Z" fill="#9BA9F5"/>
<path d="M438.859 51.4881C438.859 60.2632 433.243 65.3879 426.223 65.3879C421.239 65.3879 416.676 63.0712 414.078 59.491L417.097 56.0512C419.273 59.14 422.783 60.895 426.153 60.895C430.575 60.895 434.085 57.5254 434.085 51.6987C434.085 46.0826 430.014 43.2746 425.591 41.0282C420.256 38.3606 415.482 34.9207 415.482 26.988C415.482 17.7917 421.66 13.2989 428.118 13.2989C432.541 13.2989 436.332 14.7731 438.719 18.0725L435.7 21.5124C433.805 18.8447 431.277 17.7215 428.259 17.7215C424.327 17.7215 420.256 20.4594 420.256 26.9178C420.256 32.4637 423.976 34.9909 428.118 37.0969C433.454 39.7646 438.859 43.4852 438.859 51.4881Z" fill="#B4C7F2"/>
<path d="M401.401 51.4881C401.401 60.2632 395.785 65.3879 388.765 65.3879C383.78 65.3879 379.217 63.0712 376.62 59.491L379.639 56.0512C381.815 59.14 385.325 60.895 388.694 60.895C393.117 60.895 396.627 57.5254 396.627 51.6987C396.627 46.0826 392.555 43.2746 388.133 41.0282C382.798 38.3606 378.024 34.9207 378.024 26.988C378.024 17.7917 384.202 13.2989 390.66 13.2989C395.083 13.2989 398.874 14.7731 401.26 18.0725L398.242 21.5124C396.346 18.8447 393.819 17.7215 390.8 17.7215C386.869 17.7215 382.798 20.4594 382.798 26.9178C382.798 32.4637 386.518 34.9909 390.66 37.0969C395.995 39.7646 401.401 43.4852 401.401 51.4881Z" fill="#B4C7F2"/>
<path d="M366.661 64.1943H361.537L358.518 51.7687H343.214L340.055 64.1943H335.071L347.707 14.4921H354.376L366.661 64.1943ZM357.816 47.8375L351.077 18.9148H350.796L343.916 47.8375H357.816Z" fill="#B4C7F2"/>
<path d="M328.264 27.9707C328.264 37.167 322.507 42.0108 316.049 42.0108H308.748V64.1943H303.904V14.4921H315.628C321.384 14.4921 328.264 17.581 328.264 27.9707ZM323.42 28.0409C323.42 21.442 319.77 18.7042 315.347 18.7042H308.748V37.869H315.417C319.84 37.869 323.42 34.6397 323.42 28.0409Z" fill="#B4C7F2"/>
<path d="M287.998 51.4881C287.998 60.2632 282.382 65.3879 275.362 65.3879C270.378 65.3879 265.814 63.0712 263.217 59.491L266.236 56.0512C268.412 59.14 271.922 60.895 275.292 60.895C279.714 60.895 283.224 57.5254 283.224 51.6987C283.224 46.0826 279.153 43.2746 274.73 41.0282C269.395 38.3606 264.621 34.9207 264.621 26.988C264.621 17.7917 270.799 13.2989 277.257 13.2989C281.68 13.2989 285.471 14.7731 287.857 18.0725L284.839 21.5124C282.943 18.8447 280.416 17.7215 277.398 17.7215C273.466 17.7215 269.395 20.4594 269.395 26.9178C269.395 32.4637 273.115 34.9909 277.257 37.0969C282.592 39.7646 287.998 43.4852 287.998 51.4881Z" fill="#B4C7F2"/>
<path d="M248.087 64.1943H242.19L224.85 22.846H224.639V64.1943H220.076V14.4921H226.184L243.383 55.8404H243.594V14.4921H248.087V64.1943Z" fill="#B4C7F2"/>
<path d="M206.888 64.1943H201.764L198.745 51.7687H183.441L180.282 64.1943H175.298L187.934 14.4921H194.603L206.888 64.1943ZM198.043 47.8375L191.304 18.9148H191.023L184.143 47.8375H198.043Z" fill="#B4C7F2"/>
<path d="M165.57 64.1943H160.305L151.319 41.1684H144.931V64.1943H140.087V14.4921H152.021C158.55 14.4921 164.798 17.7916 164.798 27.6197C164.798 36.0438 159.954 39.6942 155.882 40.326L165.57 64.1943ZM160.024 27.8303C160.024 20.6698 155.671 18.634 151.249 18.634H144.931V37.3074H151.459C156.724 37.3074 160.024 33.7973 160.024 27.8303Z" fill="#B4C7F2"/>
<path d="M127.395 18.7042H117.778V64.1943H112.934V18.7042H103.386V14.4921H127.395V18.7042Z" fill="#B4C7F2"/>
</svg>
