<svg width="53" height="53" viewBox="0 0 53 53" fill="none" xmlns="http://www.w3.org/2000/svg">
<path d="M38.2325 49.6297C35.7678 49.6297 33.1722 49.0408 30.4894 47.9066C27.872 46.7942 25.2329 45.2674 22.6591 43.4134C20.1072 41.5377 17.6425 39.4438 15.3087 37.1536C12.9966 34.8197 10.9027 32.355 9.04877 29.8249C7.17299 27.2075 5.668 24.5902 4.59924 22.06C3.46505 19.3554 2.89795 16.738 2.89795 14.2734C2.89795 12.5721 3.20331 10.958 3.79222 9.45303C4.40294 7.90442 5.38445 6.46486 6.71495 5.22161C8.39443 3.56394 10.3138 2.73511 12.3641 2.73511C13.2148 2.73511 14.0872 2.93141 14.8288 3.28039C15.6794 3.673 16.3992 4.26191 16.9227 5.04712L21.983 12.1795C22.441 12.812 22.79 13.4227 23.0299 14.0334C23.3134 14.6878 23.4661 15.3421 23.4661 15.9746C23.4661 16.8035 23.2262 17.6105 22.7682 18.3739C22.441 18.9628 21.9393 19.5953 21.3068 20.2279L19.8236 21.7765C19.8454 21.8419 19.8672 21.8855 19.8891 21.9292C20.1508 22.3872 20.6743 23.1724 21.6776 24.3502C22.7464 25.5717 23.7497 26.6841 24.753 27.7092C26.0399 28.9743 27.1086 29.9776 28.112 30.8064C29.3552 31.8534 30.1622 32.3768 30.6421 32.6168L30.5985 32.7258L32.1907 31.1554C32.8669 30.4793 33.5212 29.9776 34.1537 29.6504C35.3534 28.9088 36.8802 28.778 38.407 29.4105C38.9741 29.6504 39.5848 29.9776 40.2391 30.4356L47.4805 35.5831C48.2875 36.1284 48.8764 36.8264 49.2254 37.6552C49.5526 38.4841 49.7053 39.2475 49.7053 40.0108C49.7053 41.0578 49.4654 42.1047 49.0073 43.0863C48.5493 44.0678 47.9822 44.9184 47.2624 45.7036C46.0192 47.0778 44.6668 48.0593 43.0964 48.6918C41.5914 49.3025 39.9556 49.6297 38.2325 49.6297ZM12.3641 6.00682C11.1645 6.00682 10.0521 6.5303 8.98334 7.57725C7.98001 8.51514 7.28205 9.54028 6.84582 10.6527C6.38778 11.7869 6.16966 12.9865 6.16966 14.2734C6.16966 16.3018 6.64952 18.5048 7.60922 20.7732C8.59073 23.0852 9.96485 25.4844 11.7098 27.8837C13.4547 30.2829 15.4395 32.6168 17.6207 34.8197C19.8018 36.9791 22.1574 38.9857 24.5785 40.7524C26.9341 42.4755 29.3552 43.8715 31.7545 44.8748C35.4842 46.467 38.9741 46.8378 41.8532 45.6382C42.9656 45.1802 43.9471 44.4822 44.8413 43.4789C45.343 42.9336 45.7356 42.3447 46.0628 41.6467C46.3245 41.1014 46.4554 40.5343 46.4554 39.9672C46.4554 39.6182 46.3899 39.2693 46.2155 38.8767C46.15 38.7458 46.0192 38.5059 45.6047 38.2223L38.3633 33.0748C37.9271 32.7695 37.5345 32.5513 37.1637 32.3987C36.6839 32.2024 36.4876 32.0061 35.746 32.4641C35.3097 32.6822 34.9171 33.0094 34.4809 33.4456L32.8232 35.0815C31.9726 35.9103 30.6639 36.1066 29.6606 35.7358L29.0717 35.4741C28.1774 34.9942 27.1305 34.2526 25.9744 33.2711C24.9275 32.3768 23.7933 31.3299 22.4192 29.9776C21.3504 28.887 20.2817 27.731 19.1693 26.4441C18.1441 25.2445 17.4026 24.2194 16.9445 23.3687L16.6828 22.7144C16.5519 22.2127 16.5083 21.9292 16.5083 21.6238C16.5083 20.8386 16.7918 20.1406 17.3371 19.5953L18.973 17.8941C19.4092 17.4578 19.7364 17.0434 19.9545 16.6726C20.129 16.3891 20.1944 16.1491 20.1944 15.931C20.1944 15.7565 20.129 15.4948 20.0199 15.2331C19.8672 14.8841 19.6273 14.4915 19.322 14.0771L14.2617 6.9229C14.0436 6.61754 13.7819 6.39943 13.4547 6.24675C13.1057 6.09407 12.7349 6.00682 12.3641 6.00682ZM30.5985 32.7476L30.2495 34.2308L30.8384 32.704C30.7293 32.6822 30.6421 32.704 30.5985 32.7476Z" fill="#30429E"/>
<path d="M40.5225 21.2739C39.6283 21.2739 38.8867 20.5323 38.8867 19.638C38.8867 18.8528 38.1015 17.217 36.7928 15.821C35.5059 14.4469 34.0882 13.6399 32.8885 13.6399C31.9943 13.6399 31.2527 12.8983 31.2527 12.004C31.2527 11.1098 31.9943 10.3682 32.8885 10.3682C35.0043 10.3682 37.229 11.5024 39.1702 13.5744C40.9806 15.5157 42.1584 17.8931 42.1584 19.638C42.1584 20.5323 41.4168 21.2739 40.5225 21.2739Z" fill="#7790ED"/>
<path d="M48.1565 21.2748C47.2623 21.2748 46.5207 20.5332 46.5207 19.639C46.5207 12.114 40.4135 6.00682 32.8885 6.00682C31.9943 6.00682 31.2527 5.26523 31.2527 4.37096C31.2527 3.4767 31.9943 2.73511 32.8885 2.73511C42.202 2.73511 49.7924 10.3255 49.7924 19.639C49.7924 20.5332 49.0508 21.2748 48.1565 21.2748Z" fill="#B4C7F2"/>
</svg>
