<svg width="27" height="27" viewBox="0 0 27 27" fill="none" xmlns="http://www.w3.org/2000/svg">
<path d="M22.2413 12.6562H17.6962C15.435 12.6562 14.3438 11.655 14.3438 9.585V4.4775C14.3438 2.4075 15.4462 1.40625 17.6962 1.40625H22.2413C24.5025 1.40625 25.5938 2.4075 25.5938 4.4775V9.57375C25.5938 11.655 24.4913 12.6562 22.2413 12.6562ZM17.6962 3.09375C16.1887 3.09375 16.0312 3.52125 16.0312 4.4775V9.57375C16.0312 10.5413 16.1887 10.9575 17.6962 10.9575H22.2413C23.7488 10.9575 23.9062 10.53 23.9062 9.57375V4.4775C23.9062 3.51 23.7488 3.09375 22.2413 3.09375H17.6962Z" fill="#292621"/>
<path d="M22.2413 25.5938H17.6962C15.435 25.5938 14.3438 24.4913 14.3438 22.2413V17.6962C14.3438 15.435 15.4462 14.3438 17.6962 14.3438H22.2413C24.5025 14.3438 25.5938 15.4462 25.5938 17.6962V22.2413C25.5938 24.4913 24.4913 25.5938 22.2413 25.5938ZM17.6962 16.0312C16.3687 16.0312 16.0312 16.3687 16.0312 17.6962V22.2413C16.0312 23.5688 16.3687 23.9062 17.6962 23.9062H22.2413C23.5688 23.9062 23.9062 23.5688 23.9062 22.2413V17.6962C23.9062 16.3687 23.5688 16.0312 22.2413 16.0312H17.6962Z" fill="#292621"/>
<path d="M9.30375 12.6562H4.75875C2.4975 12.6562 1.40625 11.655 1.40625 9.585V4.4775C1.40625 2.4075 2.50875 1.40625 4.75875 1.40625H9.30375C11.565 1.40625 12.6562 2.4075 12.6562 4.4775V9.57375C12.6562 11.655 11.5538 12.6562 9.30375 12.6562ZM4.75875 3.09375C3.25125 3.09375 3.09375 3.52125 3.09375 4.4775V9.57375C3.09375 10.5413 3.25125 10.9575 4.75875 10.9575H9.30375C10.8113 10.9575 10.9688 10.53 10.9688 9.57375V4.4775C10.9688 3.51 10.8113 3.09375 9.30375 3.09375H4.75875Z" fill="#292621"/>
<path d="M9.30375 25.5938H4.75875C2.4975 25.5938 1.40625 24.4913 1.40625 22.2413V17.6962C1.40625 15.435 2.50875 14.3438 4.75875 14.3438H9.30375C11.565 14.3438 12.6562 15.4462 12.6562 17.6962V22.2413C12.6562 24.4913 11.5538 25.5938 9.30375 25.5938ZM4.75875 16.0312C3.43125 16.0312 3.09375 16.3687 3.09375 17.6962V22.2413C3.09375 23.5688 3.43125 23.9062 4.75875 23.9062H9.30375C10.6313 23.9062 10.9688 23.5688 10.9688 22.2413V17.6962C10.9688 16.3687 10.6313 16.0312 9.30375 16.0312H4.75875Z" fill="#292621"/>
</svg>
