<svg width="31" height="31" viewBox="0 0 31 31" fill="none" xmlns="http://www.w3.org/2000/svg">
<path d="M15.6556 17.4763C15.6298 17.4763 15.591 17.4763 15.5652 17.4763C15.5264 17.4763 15.4748 17.4763 15.436 17.4763C12.5039 17.3859 10.3081 15.0996 10.3081 12.2838C10.3081 9.41629 12.646 7.07837 15.5135 7.07837C18.381 7.07837 20.7189 9.41629 20.7189 12.2838C20.706 15.1125 18.4973 17.3859 15.6944 17.4763C15.6685 17.4763 15.6685 17.4763 15.6556 17.4763ZM15.5006 9.00295C13.6923 9.00295 12.2327 10.4755 12.2327 12.2709C12.2327 14.0405 13.6148 15.4742 15.3714 15.5388C15.4102 15.5259 15.5394 15.5259 15.6685 15.5388C17.3994 15.4484 18.7556 14.0275 18.7685 12.2709C18.7685 10.4755 17.3089 9.00295 15.5006 9.00295Z" fill="#292621"/>
<path d="M15.5 29.3853C12.0254 29.3853 8.70582 28.0937 6.13541 25.7428C5.90291 25.5362 5.79957 25.2262 5.82541 24.9291C5.99332 23.392 6.94916 21.9582 8.53791 20.8991C12.3871 18.3416 18.6258 18.3416 22.4621 20.8991C24.0508 21.9712 25.0067 23.392 25.1746 24.9291C25.2133 25.2391 25.0971 25.5362 24.8646 25.7428C22.2942 28.0937 18.9746 29.3853 15.5 29.3853ZM7.85332 24.6707C9.99749 26.4662 12.6971 27.4478 15.5 27.4478C18.3029 27.4478 21.0025 26.4662 23.1467 24.6707C22.9142 23.8828 22.2942 23.1207 21.3771 22.5007C18.1996 20.3824 12.8133 20.3824 9.60999 22.5007C8.69291 23.1207 8.08582 23.8828 7.85332 24.6707Z" fill="#292621"/>
</svg>
