<svg width="141" height="142" viewBox="0 0 141 142" fill="none" xmlns="http://www.w3.org/2000/svg">
<g clip-path="url(#clip0_736_2695)">
<path d="M21.2004 35.8085C21.2004 33.7303 21.128 31.6469 21.2159 29.5739C21.3968 25.4382 24.6795 22.0986 28.8101 21.9797C33.0182 21.8608 37.2366 21.8608 41.4447 21.9746C45.7096 22.0831 49.0802 25.5261 49.1733 29.8066C49.2612 33.9061 49.2715 38.0108 49.1733 42.1103C49.0699 46.3546 45.6269 49.8079 41.3826 49.9113C37.2262 50.0147 33.0647 50.0198 28.9083 49.9061C24.7261 49.7924 21.3813 46.3856 21.2159 42.2033C21.1332 40.0735 21.2004 37.9384 21.2004 35.8033V35.8085ZM28.1587 35.824C28.1587 37.6282 28.1846 39.4376 28.1484 41.2418C28.1225 42.4256 28.6705 42.9581 29.8182 42.9581C33.3749 42.9581 36.9316 42.9529 40.4883 42.9581C41.636 42.9581 42.2098 42.4256 42.2098 41.2676C42.2046 37.7109 42.2098 34.1542 42.2098 30.5975C42.2098 29.4654 41.7187 28.8864 40.5193 28.8967C36.9626 28.9225 33.4059 28.9225 29.8492 28.8967C28.686 28.8915 28.1329 29.3826 28.1484 30.5665C28.1742 32.319 28.1535 34.0663 28.1535 35.8188L28.1587 35.824Z" fill="#30429E"/>
<path d="M105.352 21.9488C107.43 21.9488 109.513 21.8816 111.586 21.9643C115.805 22.1349 119.144 25.428 119.258 29.6567C119.367 33.808 119.367 37.9695 119.258 42.1259C119.155 46.4064 115.748 49.808 111.483 49.9114C107.383 50.0096 103.274 50.0044 99.174 49.9165C94.847 49.8235 91.3833 46.3443 91.2955 42.0225C91.2128 37.9747 91.2179 33.9269 91.2955 29.879C91.373 25.5159 94.7539 22.1091 99.1119 21.954C101.19 21.8764 103.268 21.9385 105.347 21.9385C105.347 21.9385 105.347 21.9385 105.347 21.9436L105.352 21.9488ZM105.259 28.9123C103.506 28.9123 101.754 28.9433 100.006 28.902C98.8328 28.8761 98.2693 29.3931 98.2693 30.5511C98.2693 34.1078 98.2745 37.6645 98.2693 41.2212C98.2693 42.3585 98.7656 42.9634 99.9391 42.9634C103.496 42.9634 107.053 42.9582 110.609 42.9634C111.86 42.9634 112.351 42.3689 112.336 41.1333C112.295 37.6852 112.284 34.237 112.336 30.7941C112.357 29.3414 111.721 28.8503 110.351 28.902C108.655 28.964 106.959 28.9175 105.264 28.9175L105.259 28.9123Z" fill="#B4C7F2"/>
<path d="M35.1272 120.017C33.049 120.017 30.9657 120.089 28.8927 120.001C24.6691 119.825 21.3295 116.532 21.2209 112.309C21.1124 108.101 21.1124 103.882 21.2261 99.6742C21.3398 95.5696 24.7156 92.1834 28.8203 92.0645C33.0284 91.9405 37.2468 91.9456 41.4549 92.0645C45.6268 92.1783 49.0439 95.6006 49.1576 99.7776C49.2714 103.929 49.261 108.09 49.1576 112.247C49.0542 116.507 45.6371 119.857 41.3515 120.017C39.2733 120.094 37.1951 120.032 35.1169 120.032C35.1169 120.032 35.1169 120.032 35.1169 120.027L35.1272 120.017ZM35.0859 113.053C36.8901 113.053 38.6995 113.027 40.5037 113.064C41.6927 113.089 42.2096 112.521 42.2096 111.383C42.2096 107.827 42.2045 104.27 42.2096 100.713C42.2096 99.5605 41.6617 99.0022 40.5088 99.0022C36.9521 99.0074 33.3954 99.0022 29.8387 99.0022C28.7014 99.0022 28.1379 99.5088 28.1482 100.698C28.1741 104.255 28.1741 107.811 28.1482 111.368C28.1431 112.536 28.6549 113.074 29.8284 113.058C31.5809 113.033 33.3282 113.053 35.0807 113.053H35.0859Z" fill="#B4C7F2"/>
<path d="M140.345 24.5388C140.345 27.0564 140.376 29.5791 140.335 32.0968C140.299 34.4283 138.975 35.8499 136.912 35.8758C134.803 35.8964 133.382 34.3972 133.371 32.0244C133.345 27.6457 133.376 23.2619 133.361 18.8832C133.335 12.3281 128.868 7.8977 122.277 7.87702C117.842 7.86668 113.406 7.87702 108.971 7.86668C107.394 7.86668 106.205 7.1481 105.61 5.68509C105.078 4.372 105.181 2.9762 106.282 2.05601C107.016 1.44082 108.107 0.965215 109.048 0.944536C113.918 0.846313 118.798 0.804956 123.668 0.954875C132.71 1.22887 139.973 8.56975 140.299 17.6425C140.381 19.9378 140.309 22.2434 140.309 24.5388C140.319 24.5388 140.33 24.5388 140.345 24.5388Z" fill="#30429E"/>
<path d="M23.7694 141.248C20.497 141.062 17.1626 141.207 13.9626 140.623C6.18749 139.206 0.41818 132.295 0.195886 124.39C0.0563056 119.52 0.123511 114.645 0.149359 109.771C0.164868 107.486 1.58652 106.064 3.66471 106.09C5.69638 106.116 7.09218 107.604 7.10769 109.874C7.13871 114.309 7.10252 118.745 7.1232 123.181C7.14904 129.544 11.6363 134.052 17.9743 134.083C22.4667 134.109 26.9591 134.052 31.4463 134.104C34.3258 134.135 36.0163 136.823 34.7394 139.222C34.0518 140.509 32.9352 141.073 31.5032 141.073C28.9287 141.073 26.3542 141.073 23.7798 141.073C23.7798 141.135 23.7746 141.192 23.7694 141.254V141.248Z" fill="#30429E"/>
<path d="M140.51 117.463C140.335 120.684 140.485 123.956 139.921 127.11C138.515 134.993 131.639 140.778 123.642 141.016C118.772 141.161 113.892 141.093 109.022 141.062C106.737 141.047 105.326 139.62 105.362 137.532C105.393 135.505 106.882 134.12 109.162 134.104C113.546 134.078 117.924 134.104 122.308 134.094C128.884 134.073 133.34 129.627 133.366 123.062C133.381 118.626 133.366 114.191 133.371 109.755C133.371 108.183 134.017 106.788 135.522 106.431C136.612 106.173 138.081 106.359 139.006 106.943C139.745 107.408 140.226 108.752 140.293 109.74C140.469 112.304 140.35 114.883 140.35 117.458C140.407 117.458 140.459 117.463 140.516 117.468L140.51 117.463Z" fill="#30429E"/>
<path d="M23.8163 0.892696C26.2253 0.892696 28.6344 0.877187 31.0434 0.892696C33.6386 0.913375 35.1119 2.17994 35.1171 4.35635C35.1171 6.51209 33.5921 7.86136 31.0693 7.8717C26.7423 7.88721 22.4153 7.86136 18.0883 7.87687C11.6263 7.89755 7.14421 12.3745 7.11836 18.8262C7.10285 23.1531 7.12353 27.4801 7.11319 31.8019C7.10285 34.3299 5.76391 35.8704 3.61851 35.8756C1.44727 35.8756 0.144519 34.3971 0.139349 31.8226C0.12901 27.0614 0.0514653 22.2898 0.196215 17.5338C0.470206 8.57994 7.81109 1.27525 16.7546 0.944392C19.1067 0.856509 21.4641 0.928884 23.8163 0.928884C23.8163 0.913375 23.8163 0.903035 23.8163 0.887526V0.892696Z" fill="#30429E"/>
<path d="M77.2959 56.9214V64.0038C78.428 64.0038 79.4982 63.9728 80.5683 64.0089C82.7809 64.0813 84.3214 65.5753 84.2697 67.5553C84.218 69.4991 82.7188 70.9518 80.5838 70.9673C76.0397 71.0086 71.4956 71.0086 66.9515 70.9673C64.7182 70.9466 63.2552 69.4732 63.281 67.4106C63.3069 65.4099 64.7078 64.0813 66.9101 64.0038C67.9389 63.9676 68.9728 63.9986 70.1256 63.9986V56.9214C66.6878 56.9214 63.3069 56.9524 59.9259 56.911C57.7133 56.88 56.1728 55.355 56.2193 53.3802C56.2658 51.4984 57.7185 49.9786 59.7295 49.9682C66.7395 49.9217 73.7444 49.9217 80.7544 49.9682C82.7705 49.9786 84.2232 51.4933 84.2697 53.375C84.3163 55.3033 82.8274 56.8128 80.7285 56.9059C79.6481 56.9524 78.5625 56.9162 77.3011 56.9162L77.2959 56.9214Z" fill="#30429E"/>
<path d="M91.2746 112.971H98.2691C98.2691 111.859 98.233 110.83 98.2795 109.807C98.3829 107.527 99.7735 106.09 101.816 106.095C103.858 106.1 105.222 107.537 105.326 109.833C105.372 110.856 105.331 111.88 105.331 112.976H112.325C112.325 111.828 112.294 110.748 112.331 109.667C112.408 107.537 113.83 106.095 115.815 106.09C117.831 106.085 119.237 107.465 119.289 109.641C119.346 111.937 119.346 114.237 119.284 116.532C119.222 118.693 117.929 120.001 115.748 120.012C106.442 120.048 97.1422 120.048 87.8368 120.012C85.6552 120.001 84.3783 118.683 84.3215 116.512C84.2594 114.216 84.2646 111.916 84.3215 109.621C84.3732 107.465 85.8052 106.074 87.8161 106.09C89.7909 106.105 91.2023 107.558 91.2746 109.693C91.3108 110.727 91.2798 111.766 91.2798 112.971H91.2746Z" fill="#30429E"/>
<path d="M77.1563 92.018V85.0287C76.1224 85.0287 75.1091 85.0597 74.1011 85.0235C71.7437 84.9356 70.2135 83.4881 70.2549 81.4306C70.2962 79.43 71.7902 78.0445 74.0804 77.9825C76.2154 77.9308 78.3505 77.9204 80.4804 77.9825C82.8843 78.0548 84.2439 79.3938 84.2749 81.808C84.3318 86.2952 84.3369 90.7825 84.2749 95.2645C84.2387 97.6684 82.8481 98.9764 80.4235 98.9867C73.6358 99.0177 66.8532 99.0125 60.0655 98.9867C57.734 98.9764 56.1573 97.4616 56.2193 95.43C56.2813 93.4345 57.8167 92.0335 60.0758 92.0232C65.7056 91.9973 71.3353 92.0129 77.1615 92.0129L77.1563 92.018Z" fill="#30429E"/>
<path d="M77.2235 28.9124C76.4843 28.9124 75.895 28.9124 75.3108 28.9124C70.2807 28.9124 65.2455 28.9227 60.2154 28.9072C57.8322 28.8968 56.2658 27.5321 56.209 25.4849C56.1521 23.4015 57.765 21.9437 60.231 21.9385C66.905 21.9178 73.5738 21.9178 80.2478 21.9385C82.9618 21.9489 84.2543 23.2464 84.2801 25.9863C84.3163 30.2513 84.3111 34.5162 84.2801 38.7812C84.2646 41.2936 82.8895 42.891 80.8113 42.9324C78.6814 42.9738 77.2494 41.3246 77.2287 38.7295C77.2029 35.5191 77.2235 32.3036 77.2235 28.9124Z" fill="#30429E"/>
<path d="M98.2538 91.9714H105.336C105.336 90.9117 105.316 89.8932 105.336 88.8748C105.393 86.3779 106.608 85.101 109.053 85.0493C111.245 85.0028 113.437 85.0028 115.624 85.0493C117.909 85.0958 119.32 86.502 119.279 88.5905C119.243 90.5705 117.795 91.9456 115.634 92.0128C114.6 92.0438 113.566 92.018 112.31 92.018C112.31 93.1811 112.336 94.2564 112.305 95.3265C112.233 97.5598 110.935 98.9556 108.728 98.9763C104.127 99.028 99.5256 99.0228 94.9297 98.9763C92.6965 98.9556 91.3368 97.596 91.2852 95.3937C91.2335 93.1501 91.2386 90.9013 91.2852 88.6577C91.3265 86.5123 92.7533 85.0648 94.7281 85.0441C96.7495 85.0235 98.1504 86.3986 98.2383 88.5647C98.2848 89.6451 98.2486 90.7307 98.2486 91.9611L98.2538 91.9714Z" fill="#30429E"/>
<path d="M63.2501 113.053C63.2501 114.253 63.2914 115.276 63.2397 116.3C63.1312 118.585 61.7509 120.017 59.7089 120.017C57.672 120.017 56.2659 118.58 56.1987 116.289C56.1367 114.103 56.1263 111.916 56.2039 109.729C56.2866 107.413 57.6359 106.105 59.9622 106.085C64.5011 106.043 69.0401 106.043 73.579 106.085C75.7761 106.105 77.1719 107.486 77.1978 109.486C77.2236 111.544 75.7658 113.012 73.5325 113.038C70.1567 113.079 66.7809 113.048 63.2449 113.048L63.2501 113.053Z" fill="#30429E"/>
<path d="M49.199 64.0089C50.4708 64.0089 51.5512 63.9727 52.6368 64.014C54.8029 64.1019 56.1832 65.4925 56.1677 67.5087C56.1522 69.4318 54.7564 70.8948 52.7299 70.9569C50.3777 71.0241 48.0255 71.0241 45.6733 70.9569C43.652 70.9 42.3389 69.5404 42.2407 67.5087C42.189 66.4283 42.2304 65.3375 42.2304 63.9934C41.0724 63.9934 40.0539 64.0244 39.0407 63.9882C36.7092 63.9003 35.1325 62.4166 35.179 60.3901C35.2255 58.4102 36.7402 57.004 39.0149 56.942C41.093 56.8851 43.1764 56.8954 45.2546 56.942C47.8446 56.9988 49.1628 58.3585 49.199 60.9381C49.2145 61.8635 49.199 62.794 49.199 64.0089Z" fill="#30429E"/>
<path d="M112.325 64.0037C112.325 62.6906 112.289 61.5998 112.336 60.5142C112.424 58.4205 113.943 56.9265 115.882 56.9627C117.764 56.9989 119.258 58.436 119.279 60.4625C119.335 65.1152 119.335 69.773 119.279 74.4257C119.253 76.5918 117.8 77.9721 115.774 77.9462C113.799 77.9255 112.398 76.4729 112.325 74.3275C112.289 73.2936 112.32 72.2545 112.32 70.9776C111.178 70.9776 110.102 71.0034 109.032 70.9724C106.799 70.9052 105.331 69.4732 105.352 67.4208C105.372 65.415 106.768 64.0813 108.97 64.0037C109.999 63.9675 111.033 63.9986 112.32 63.9986L112.325 64.0037Z" fill="#30429E"/>
<path d="M31.7671 85.0338C29.5752 85.0338 27.3832 85.0596 25.1913 85.0286C22.6789 84.9872 21.1642 83.6018 21.19 81.4409C21.221 79.3575 22.7099 78.003 25.1448 77.9824C29.4718 77.9462 33.8039 77.9462 38.1309 77.9824C40.602 78.003 42.2149 79.4764 42.1736 81.5649C42.1322 83.6018 40.571 84.9562 38.1723 85.0389C38.0637 85.0389 37.9552 85.0389 37.8414 85.0389C35.8149 85.0389 33.7884 85.0389 31.7619 85.0389L31.7671 85.0338Z" fill="#30429E"/>
<path d="M98.2642 67.4931C98.2642 69.7368 98.2952 71.9855 98.2539 74.2292C98.2125 76.54 96.8425 77.9565 94.7643 77.9461C92.7223 77.9358 91.3059 76.4521 91.2904 74.1878C91.2593 69.6954 91.2593 65.203 91.2904 60.7106C91.3059 58.4928 92.8051 56.9419 94.8005 56.9574C96.7908 56.9729 98.2125 58.5031 98.2539 60.7571C98.29 63.0007 98.2642 65.2495 98.2642 67.4931Z" fill="#7790ED"/>
<path d="M63.1725 42.9477C62.0249 42.9477 60.8669 43.015 59.7244 42.9322C57.672 42.7875 56.2556 41.3555 56.2194 39.4944C56.178 37.5765 57.6358 36.0204 59.7606 35.9326C62.0559 35.8395 64.3615 35.8447 66.6569 35.9326C68.8074 36.0153 70.2446 37.5041 70.2342 39.4479C70.2239 41.3917 68.7919 42.8185 66.6258 42.9426C65.4782 43.0098 64.3254 42.9529 63.1777 42.9529C63.1777 42.9529 63.1777 42.9529 63.1777 42.9477H63.1725Z" fill="#30429E"/>
<path d="M56.1832 85.0184C55.0355 85.0184 53.8827 85.0804 52.735 85.0029C50.5845 84.8581 49.1732 83.3796 49.2145 81.4306C49.2507 79.5437 50.6362 78.0911 52.7092 78.0083C55.0562 77.9101 57.4187 77.9101 59.7657 78.0135C61.8077 78.1066 63.2139 79.6264 63.2191 81.4875C63.2242 83.3434 61.8232 84.8323 59.7916 84.9925C58.5974 85.0856 57.3877 85.008 56.1832 85.008C56.1832 85.008 56.1832 85.0132 56.1832 85.0184Z" fill="#7790ED"/>
<path d="M21.2003 63.9623C21.2003 62.7061 21.1331 61.4447 21.2158 60.1885C21.3347 58.3636 22.7615 57.035 24.5347 56.9627C26.3286 56.8903 28.0139 58.2499 28.0966 60.1161C28.2155 62.6803 28.2155 65.2599 28.0966 67.8241C28.0087 69.6903 26.3286 71.0344 24.5244 70.962C22.7564 70.8948 21.3347 69.5559 21.2158 67.731C21.1383 66.48 21.2003 65.2186 21.2003 63.9572V63.9623Z" fill="#30429E"/>
</g>
<defs>
<clipPath id="clip0_736_2695">
<rect width="140.402" height="140.392" fill="white" transform="translate(0.108154 0.85675)"/>
</clipPath>
</defs>
</svg>
