<svg width="157" height="172" viewBox="0 0 157 172" fill="none" xmlns="http://www.w3.org/2000/svg">
<g clip-path="url(#clip0_736_2793)">
<path d="M119.02 108.883C119.82 111.962 120.999 114.693 121.171 117.486C121.736 126.668 114.537 134.222 105.335 134.286C93.0332 134.369 80.7296 134.308 68.4282 134.308C68.1505 134.308 67.8684 134.321 67.5951 134.283C66.1425 134.094 65.0912 132.959 65.1705 131.577C65.2543 130.1 66.1007 129.232 67.5444 128.998C68.0888 128.91 68.6553 128.963 69.2107 128.963C81.0117 128.963 92.8127 128.994 104.614 128.925C106.192 128.916 107.86 128.652 109.326 128.085C113.953 126.3 116.668 121.246 115.765 116.492C114.775 111.283 110.6 107.629 105.379 107.598C95.8038 107.541 86.229 107.563 76.6541 107.602C75.4595 107.607 74.6307 107.307 73.7799 106.392C62.8165 94.6154 44.9496 93.5442 32.9128 104.19C28.3414 108.233 24.3585 112.938 20.1904 117.254C31.8592 128.921 43.777 140.834 55.88 152.935C56.2437 152.512 56.7198 151.976 57.1739 151.421C59.4992 148.575 62.466 147.57 66.1491 147.612C78.5607 147.753 90.9767 147.696 103.39 147.652C110.177 147.627 116.296 145.474 121.149 140.737C131.784 130.358 142.287 119.837 152.699 109.231C157.344 104.501 157.095 97.1303 152.525 92.5038C147.881 87.8024 140.515 87.5158 135.686 92.1578C129.909 97.71 124.361 103.498 119.02 108.876V108.883ZM89.1208 102.235C89.3743 97.2405 90.7629 92.7882 93.1852 88.6333C96.7516 82.5146 101.837 78.8624 109.093 78.7477C112.262 78.697 115.434 78.7543 118.601 78.8623C120.781 78.9373 122.41 78.0468 123.472 76.2416C124.597 74.3306 125.635 72.3557 126.56 70.3411C129.254 64.4781 132.188 58.8222 138.253 55.4322C134.687 50.9203 130.715 47.0917 126.102 43.7877C125.681 44.3961 125.364 44.9978 124.918 45.4761C122.842 47.7045 120.924 50.1379 118.584 52.0511C115.191 54.8239 111.222 55.6306 106.994 53.9488C103.811 52.6837 100.988 52.9415 98.365 55.3749C97.2497 56.4109 95.8214 57.2022 94.4108 57.8171C84.7786 62.0138 77.8201 60.5966 71.7036 52.7806C68.9925 49.3157 67.0815 45.2248 64.8223 41.4116C64.5269 40.9113 64.3131 40.3625 64.0442 39.7982C57.6257 43.2742 52.155 47.6428 47.4095 53.1928C48.3286 53.7549 49.1265 54.2288 49.9112 54.7247C55.1571 58.0375 60.2046 61.5884 63.7356 66.8409C65.2785 69.1354 66.3431 71.6239 66.0323 74.5047C65.6356 78.1989 64.5159 81.6462 62.768 84.9348C61.5315 87.2624 60.5175 89.709 59.4067 92.1027C59.7792 92.3099 59.9114 92.4267 60.0635 92.4642C66.3916 93.9409 71.8557 96.9827 76.5307 101.484C76.8988 101.836 77.452 102.2 77.9237 102.206C81.5892 102.266 85.2591 102.24 89.1164 102.24L89.1208 102.235ZM102.222 25.4977C105.339 27.5982 108.4 28.3697 111.702 28.2022C117.415 27.9134 122.333 25.436 126.867 22.2422C129.871 20.1262 132.897 19.2996 136.426 20.4083C137.674 20.8006 138.771 20.4502 139.51 19.3591C140.255 18.2593 140.129 17.1219 139.287 16.119C134.623 10.5778 129.327 5.8521 122.776 2.55249C113.596 -2.07181 97.9242 2.12048 97.5054 16.5466C97.4944 16.9434 97.3136 17.4768 97.0227 17.6972C95.2748 19.0197 93.474 20.2694 91.7944 21.4685C90.4852 20.4436 89.1715 19.2269 87.6727 18.3122C86.6499 17.6884 86.2488 17.0426 86.132 15.8567C85.6294 10.8335 83.9124 6.37228 79.2925 3.70526C73.5815 0.407853 67.6061 -0.423111 61.4124 2.396C54.5686 5.51046 49.2103 10.472 44.4383 16.1455C43.5919 17.1506 43.4883 18.2857 44.2443 19.3812C45.0444 20.5406 46.206 20.7742 47.502 20.3708C50.8457 19.3305 53.7883 20.0336 56.6118 22.0768C60.4228 24.8342 64.5974 26.9524 69.2504 27.8804C73.4779 28.7224 77.5093 28.1845 81.5165 25.4889C79.2682 23.1437 77.1545 20.9395 75.087 18.7838C75.0804 18.7838 75.2038 18.7287 75.2898 18.764C78.0604 19.9124 80.8354 21.0563 83.5972 22.2311C88.1003 24.1443 89.9848 27.8275 88.9797 32.7978C82.0455 33.2563 75.3008 34.614 68.8691 37.5059C69.3738 38.6498 69.7662 39.6307 70.2312 40.5785C72.1753 44.5393 74.3398 48.3547 77.5799 51.4361C80.2711 53.9973 83.3305 55.2647 87.1525 54.5528C90.4102 53.9444 93.3329 52.7233 95.8545 50.6074C99.1651 47.8323 102.853 47.1535 106.946 48.4032C107.583 48.5972 108.244 48.7316 108.861 48.9741C111.081 49.8491 113.12 49.4392 115.039 48.1563C117.821 46.3004 119.758 43.7062 121.553 40.8584C117.376 38.3082 113.069 36.3399 108.48 35.1893C103.933 34.0498 99.2775 33.3268 94.5981 32.4077C94.2697 28.9824 94.5695 25.4183 97.9925 23.4478C101.374 21.5038 105.099 20.1592 109.015 18.3981C106.586 20.9351 104.473 23.1437 102.222 25.4955V25.4977ZM141.412 59.953C138.646 61.3107 136.587 63.1776 135.161 65.611C133.618 68.2428 132.364 71.042 130.903 73.7223C129.655 76.0102 128.452 78.3488 126.935 80.4537C125.108 82.9885 122.428 84.1964 119.276 84.1854C116.882 84.1765 114.491 84.0377 112.097 84.0619C110.212 84.0818 108.279 84.0311 106.452 84.4124C100.038 85.7569 94.0382 94.8777 94.6973 102.136C101.429 102.775 108.612 100.653 115.07 105.647C115.441 105.083 115.701 104.488 116.128 104.06C121.478 98.7019 126.754 93.2643 132.249 88.0603C136.283 84.2405 141.247 82.9092 146.755 83.8063C147.868 83.987 148.963 84.2801 150.213 84.5535C149.124 75.5936 146.221 67.5286 141.41 59.9552L141.412 59.953ZM53.7861 91.5516C55.6332 87.6062 57.4538 83.8107 59.1774 79.971C59.7174 78.7654 60.015 77.4473 60.3875 76.1711C61.1259 73.6341 60.5771 71.3528 58.9857 69.2765C55.0028 64.0879 49.5784 60.7597 44.0922 57.5063C34.7577 69.6446 31.652 87.6327 33.6401 96.8857C39.8691 93.0064 46.6623 91.3004 53.7861 91.5494V91.5516Z" fill="white"/>
<path d="M45.4325 171.727C44.4384 170.773 43.4267 169.838 42.4502 168.864C29.1813 155.602 15.9145 142.335 2.64992 129.068C0.388462 126.807 0.388462 125.777 2.65212 123.512C4.54108 121.62 6.41461 119.716 8.3256 117.847C9.89496 116.311 11.2483 116.3 12.8044 117.854C26.8272 131.859 40.8412 145.875 54.8464 159.895C56.3717 161.423 56.4466 162.805 55.0183 164.253C52.5276 166.779 49.9686 169.239 47.436 171.727H45.4325Z" fill="#30429E"/>
<path d="M119.02 108.883C124.361 103.505 129.909 97.7144 135.686 92.1643C140.515 87.5224 147.881 87.8089 152.525 92.5104C157.095 97.1369 157.341 104.51 152.699 109.238C142.287 119.842 131.787 130.362 121.149 140.744C116.296 145.481 110.175 147.636 103.39 147.658C90.9767 147.702 78.5629 147.76 66.1491 147.619C62.466 147.577 59.4992 148.58 57.1739 151.427C56.7198 151.983 56.2437 152.516 55.88 152.942C43.777 140.841 31.8592 128.925 20.1904 117.261C24.3585 112.945 28.3414 108.239 32.9128 104.197C44.9474 93.5508 62.8165 94.622 73.7799 106.399C74.6307 107.313 75.4595 107.613 76.6541 107.609C86.229 107.569 95.8038 107.549 105.379 107.604C110.598 107.635 114.773 111.29 115.765 116.498C116.668 121.253 113.953 126.304 109.326 128.092C107.86 128.658 106.192 128.923 104.614 128.932C92.8127 129 81.0117 128.969 69.2107 128.969C68.6553 128.969 68.0866 128.916 67.5444 129.004C66.1007 129.238 65.2543 130.107 65.1705 131.583C65.0912 132.965 66.1425 134.1 67.5951 134.29C67.8706 134.325 68.1505 134.314 68.4282 134.314C80.7296 134.314 93.0332 134.376 105.335 134.292C114.537 134.228 121.736 126.675 121.171 117.492C120.999 114.7 119.822 111.971 119.02 108.889V108.883Z" fill="#B4C7F2"/>
<path d="M89.121 102.235C85.2615 102.235 81.5938 102.262 77.9283 102.202C77.4544 102.195 76.9012 101.832 76.5353 101.479C71.8603 96.9782 66.3962 93.9364 60.0681 92.4596C59.916 92.4244 59.7815 92.3076 59.4112 92.0982C60.5243 89.7045 61.536 87.2579 62.7726 84.9303C64.5205 81.6439 65.638 78.1944 66.0369 74.5002C66.3477 71.6194 65.2831 69.1331 63.7402 66.8364C60.2092 61.5839 55.1594 58.033 49.9158 54.7202C49.1311 54.2243 48.3332 53.7504 47.4141 53.1883C52.1596 47.6383 57.6303 43.2718 64.0488 39.7937C64.3177 40.358 64.5293 40.9068 64.8268 41.4071C67.0861 45.2225 68.9971 49.3134 71.7082 52.7761C77.8225 60.5921 84.781 62.0093 94.4153 57.8126C95.826 57.1977 97.2521 56.4064 98.3696 55.3704C100.993 52.9348 103.818 52.6792 106.999 53.9443C111.226 55.6239 115.196 54.8194 118.588 52.0466C120.929 50.1334 122.847 47.7022 124.923 45.4716C125.37 44.9933 125.686 44.3916 126.107 43.7832C130.72 47.0894 134.692 50.918 138.258 55.4277C132.192 58.8177 129.261 64.4736 126.565 70.3366C125.639 72.3512 124.601 74.3261 123.477 76.2371C122.415 78.0423 120.786 78.9328 118.606 78.8578C115.439 78.7498 112.265 78.6925 109.097 78.7432C101.841 78.8578 96.7561 82.5101 93.1898 88.6288C90.7675 92.7837 89.3789 97.236 89.1254 102.231L89.121 102.235Z" fill="#30429E"/>
<path d="M102.222 25.4974C104.473 23.1455 106.587 20.937 109.016 18.4C105.099 20.1611 101.374 21.5057 97.9926 23.4497C94.5674 25.4202 94.2698 28.9843 94.5982 32.4096C99.2776 33.3287 103.931 34.0517 108.48 35.1912C113.069 36.3418 117.378 38.3101 121.553 40.8603C119.761 43.7081 117.821 46.3023 115.04 48.1582C113.12 49.4388 111.081 49.8488 108.861 48.976C108.244 48.7335 107.583 48.5991 106.946 48.4051C102.853 47.1553 99.1652 47.8342 95.8546 50.6092C93.3308 52.723 90.4103 53.9463 87.1526 54.5547C83.3306 55.2666 80.2735 53.9992 77.58 51.438C74.3399 48.3544 72.1732 44.539 70.2314 40.5804C69.7663 39.6326 69.3739 38.6517 68.8692 37.5078C75.3009 34.6181 82.0456 33.2582 88.9798 32.7997C89.9849 27.8294 88.1004 24.1462 83.5973 22.233C80.8355 21.0604 78.0627 19.9165 75.2899 18.7659C75.2039 18.7306 75.0805 18.7857 75.0871 18.7857C77.1524 20.9414 79.2662 23.1455 81.5166 25.4908C77.5117 28.1864 73.4781 28.7242 69.2505 27.8823C64.5976 26.9543 60.4229 24.8361 56.6119 22.0787C53.7884 20.0355 50.8459 19.3324 47.5022 20.3727C46.2061 20.7761 45.0445 20.5402 44.2444 19.3831C43.4884 18.2898 43.592 17.1525 44.4384 16.1474C49.2104 10.4739 54.5687 5.51234 61.4126 2.39788C67.6062 -0.421226 73.5817 0.407534 79.2926 3.70715C83.9103 6.37417 85.6295 10.8354 86.1321 15.8586C86.2511 17.0445 86.6523 17.6903 87.6728 18.314C89.1716 19.2288 90.4853 20.4455 91.7945 21.4704C93.4741 20.2713 95.2771 19.0216 97.0228 17.6991C97.3137 17.4787 97.4945 16.9431 97.5055 16.5485C97.9243 2.12236 113.596 -2.06773 122.776 2.55438C129.327 5.85399 134.623 10.5797 139.287 16.1209C140.132 17.1238 140.255 18.2611 139.51 19.361C138.772 20.4521 137.674 20.8025 136.426 20.4102C132.898 19.3015 129.871 20.1281 126.867 22.244C122.331 25.4379 117.416 27.9153 111.702 28.2041C108.398 28.3716 105.339 27.6001 102.222 25.4996V25.4974Z" fill="#7790ED"/>
<path d="M141.412 59.9526C146.224 67.5261 149.127 75.5911 150.215 84.5509C148.963 84.2776 147.87 83.9845 146.757 83.8037C141.249 82.9067 136.283 84.238 132.252 88.0577C126.757 93.264 121.48 98.6994 116.13 104.058C115.703 104.485 115.443 105.08 115.072 105.645C108.614 100.65 101.431 102.773 94.6995 102.133C94.0427 94.873 100.04 85.7522 106.454 84.4099C108.282 84.0264 110.212 84.0793 112.099 84.0594C114.491 84.0352 116.884 84.174 119.278 84.1829C122.43 84.1939 125.11 82.986 126.937 80.4512C128.454 78.3463 129.657 76.0077 130.905 73.7198C132.368 71.0395 133.623 68.2402 135.163 65.6085C136.589 63.1751 138.646 61.3104 141.414 59.9504L141.412 59.9526Z" fill="#7790ED"/>
<path d="M53.7861 91.5514C46.6645 91.3023 39.8691 93.0083 33.6402 96.8876C31.652 87.6346 34.7555 69.6466 44.0923 57.5083C49.5762 60.7616 55.0006 64.0877 58.9857 69.2785C60.5793 71.3526 61.1259 73.6361 60.3875 76.173C60.015 77.4492 59.7197 78.7673 59.1774 79.973C57.4538 83.8126 55.6332 87.606 53.7861 91.5536V91.5514Z" fill="#7790ED"/>
</g>
<defs>
<clipPath id="clip0_736_2793">
<rect width="155.115" height="171.042" fill="white" transform="translate(0.954834 0.685547)"/>
</clipPath>
</defs>
</svg>
