<svg width="155" height="155" viewBox="0 0 155 155" fill="none" xmlns="http://www.w3.org/2000/svg">
<g clip-path="url(#clip0_736_2726)">
<path d="M0.198975 6.39506C1.13146 3.6241 2.76331 1.5366 5.77269 0.874329C6.44556 0.720681 7.16082 0.688892 7.85488 0.688892C54.0764 0.683594 100.293 0.683594 146.509 0.683594C151.256 0.683594 154.191 3.6241 154.191 8.37659C154.191 45.9144 154.191 83.4522 154.191 120.99C154.191 125.605 151.352 128.535 146.763 128.641C144.761 128.688 142.753 128.678 140.75 128.641C138.954 128.609 137.921 127.682 137.926 126.214C137.931 124.746 138.948 123.883 140.787 123.851C142.742 123.819 144.697 123.867 146.652 123.83C148.565 123.793 149.375 122.956 149.375 121.032C149.381 90.0113 149.375 58.9851 149.375 27.9641C149.375 27.6674 149.338 27.376 149.317 26.9839H5.00975V28.6528C5.00975 59.2765 5.00975 89.8948 5.00975 120.518C5.00975 123.205 5.65613 123.84 8.41119 123.84C24.9045 123.84 41.3978 123.84 57.8858 123.84C58.5375 123.84 59.1945 123.83 59.8356 123.93C61.0383 124.116 61.7165 124.921 61.7853 126.082C61.8595 127.316 61.2184 128.211 59.9839 128.508C59.364 128.656 58.6912 128.646 58.0448 128.646C41.8058 128.651 25.5615 128.561 9.32249 128.709C4.87729 128.752 1.75665 127.358 0.198975 123.067L0.198975 6.39506ZM5.01504 21.9612H149.381C149.381 17.6008 149.381 13.3516 149.381 9.09714C149.381 6.06127 148.819 5.48907 145.82 5.48907C100.07 5.48907 54.3149 5.48907 8.56484 5.48907C8.16218 5.48907 7.75952 5.47317 7.36215 5.49436C5.97932 5.58443 5.04683 6.39506 5.03624 7.7461C4.99385 12.4456 5.02034 17.1504 5.02034 21.9559L5.01504 21.9612Z" fill="#30429E"/>
<path d="M103.366 154.65C93.7547 151.953 85.3041 146.628 76.2336 142.707C74.5434 141.976 72.848 141.16 71.3327 140.127C68.4611 138.167 66.7816 135.428 67.1418 131.846C67.6505 126.839 72.3765 123.835 77.8601 125.043C80.79 125.69 83.6563 126.601 86.5545 127.385C87.1161 127.539 87.683 127.671 88.5042 127.878C88.1333 127.062 87.879 126.484 87.6088 125.917C81.4152 112.905 75.2216 99.8925 69.0174 86.8854C68.0054 84.7662 67.2796 82.5886 67.6981 80.2203C68.2756 76.9354 70.1141 74.6307 73.3672 73.6717C76.7157 72.6863 79.6403 73.6187 81.9715 76.1354C82.9411 77.1791 83.6987 78.4719 84.3239 79.7647C87.4022 86.1119 90.4274 92.4857 93.405 98.8859C93.8607 99.8661 94.3852 100.036 95.3707 99.8554C100.044 98.9865 104.717 98.1176 109.411 97.3653C114.778 96.507 119.96 99.2779 122.286 104.147C126.598 113.18 130.9 122.214 135.192 131.258C137.693 136.524 135.981 141.325 130.673 143.868C124.087 147.025 117.485 150.162 110.873 153.272C109.713 153.818 108.473 154.199 107.27 154.66H103.36L103.366 154.65ZM104.992 150.104C106.428 149.659 107.816 149.399 109.061 148.816C115.456 145.839 121.819 142.787 128.188 139.751C131.658 138.098 132.283 136.349 130.646 132.9C126.503 124.18 122.36 115.453 118.211 106.733C116.458 103.045 113.602 101.487 109.554 102.16C104.966 102.923 100.388 103.755 95.8157 104.634C92.3772 105.297 90.8195 104.587 89.3095 101.424C86.1677 94.8275 83.0523 88.2206 79.8734 81.6455C79.4072 80.6759 78.7608 79.7223 77.982 78.9858C76.8746 77.9368 75.4653 77.7619 74.0825 78.5196C72.6732 79.2931 72.2069 80.6124 72.4771 82.1012C72.6626 83.1184 73.0652 84.1198 73.5103 85.0576C80.5622 99.9349 87.63 114.796 94.7137 129.658C95.2965 130.876 95.8528 132.063 94.8144 133.282C93.8183 134.447 92.5997 134.103 91.3546 133.743C87.1267 132.519 82.8934 131.3 78.6442 130.151C77.4998 129.843 76.2812 129.621 75.105 129.658C72.2652 129.748 70.9036 132.344 72.5566 134.622C73.2878 135.629 74.4004 136.503 75.5289 137.049C83.455 140.879 91.4129 144.657 99.4132 148.345C101.156 149.15 103.101 149.516 104.998 150.098L104.992 150.104Z" fill="#B4C7F2"/>
<path d="M104.876 72.5856C107.986 70.0477 111.239 67.388 114.434 64.7813C114.434 64.58 114.476 64.4581 114.428 64.3998C110.682 59.6314 107.085 54.7412 103.106 50.1741C101.453 48.2774 99.0953 46.9052 96.8701 45.623C95.0793 44.5951 92.9971 44.06 90.9837 43.2865C88.4141 49.8245 83.8365 53.5597 76.7898 53.3902C70.1565 53.2259 65.8491 49.5437 63.4172 43.313C59.5389 44.7912 55.3056 45.6866 52.4764 48.9185C48.063 53.9518 43.9622 59.2659 39.6547 64.5482C43.1197 67.3668 46.4099 70.0424 49.5783 72.6173C51.0935 71.1868 52.5506 69.8941 53.9069 68.5006C54.7917 67.5946 55.7454 67.033 56.9746 67.5258C58.209 68.0185 58.5163 69.1152 58.5163 70.3603C58.5057 81.8362 58.511 93.3121 58.5163 104.793C58.5163 105.392 58.5163 105.991 58.5163 106.812C59.7826 106.812 60.9641 106.812 62.1456 106.812C64.3497 106.812 66.559 106.791 68.7631 106.823C70.3154 106.844 71.3486 107.797 71.3698 109.143C71.391 110.478 70.3631 111.58 68.8584 111.596C64.6464 111.644 60.4343 111.649 56.2275 111.596C54.5268 111.575 53.7215 110.595 53.7162 108.719C53.7056 101.201 53.7109 93.683 53.7109 86.1649C53.7109 82.827 53.7109 79.4891 53.7109 76.1459C53.5678 76.0453 53.4301 75.9446 53.287 75.8492C52.7943 76.4479 52.3492 77.0943 51.7929 77.6241C50.7333 78.6308 49.5359 78.7209 48.4021 77.8043C43.9145 74.1856 39.4428 70.551 35.0029 66.8794C33.7419 65.8356 33.6413 64.6171 34.6744 63.3031C38.9501 57.8671 43.2151 52.4259 47.5649 47.0535C49.9809 44.0706 53.1493 42.0626 56.7255 40.7062C58.0819 40.1923 59.4382 39.6731 60.7946 39.1539C64.5086 37.7287 66.8663 38.7512 68.2915 42.4282C69.1816 44.7223 70.6863 46.4654 72.8745 47.5833C78.0508 50.2218 83.9583 47.8641 86.1836 42.2904C87.3068 39.4665 89.1612 38.1896 91.7732 38.5817C92.6474 38.7141 93.4686 39.1645 94.3269 39.4188C100.934 41.3632 106.036 45.2627 110.02 50.8788C112.945 55.0008 116.251 58.8526 119.382 62.8316C120.892 64.7495 120.77 65.8197 118.852 67.3827C114.852 70.6411 110.847 73.8995 106.836 77.1473C104.648 78.9222 103.837 78.8692 101.882 76.8559C101.607 76.5698 101.427 76.1936 101.204 75.8545C101.082 75.9234 100.955 75.9976 100.833 76.0665C100.796 76.4268 100.722 76.787 100.722 77.1473C100.711 81.0574 100.722 84.9675 100.711 88.8722C100.711 90.7372 99.9059 91.7598 98.4436 91.8074C96.9071 91.8604 95.9217 90.7849 95.9164 88.9305C95.9005 82.7157 95.9164 76.5009 95.9058 70.2861C95.9058 69.0358 96.2343 67.9602 97.4899 67.4887C98.6608 67.0489 99.5827 67.5523 100.441 68.4106C101.85 69.8199 103.35 71.1444 104.892 72.575L104.876 72.5856Z" fill="#30429E"/>
<path d="M19.9932 75.0387C21.1217 76.2466 22.1972 77.3593 23.2251 78.509C24.2529 79.664 24.2635 81.0574 23.3045 81.9899C22.3244 82.9489 20.9256 82.9224 19.8289 81.8151C18.213 80.1832 16.6288 78.509 15.0817 76.8136C14.0115 75.6427 13.985 74.4823 15.0287 73.3326C16.6023 71.5895 18.2236 69.8888 19.8766 68.2199C20.9203 67.1708 22.2449 67.1443 23.2251 68.0344C24.2317 68.951 24.3006 70.3709 23.2939 71.51C22.2396 72.7021 21.1217 73.836 19.9932 75.0387Z" fill="#7790ED"/>
<path d="M134.402 75.0334C133.295 73.8625 132.251 72.7869 131.245 71.6849C130.122 70.4557 130.074 69.0623 131.08 68.0927C132.108 67.1073 133.507 67.1814 134.657 68.3629C136.193 69.9418 137.703 71.5419 139.187 73.1631C140.405 74.4983 140.427 75.5579 139.24 76.8613C137.724 78.5249 136.188 80.1674 134.609 81.7727C133.465 82.9383 132.013 82.9701 131.017 81.9528C130.1 81.0204 130.164 79.6322 131.213 78.4666C132.22 77.354 133.253 76.2679 134.402 75.0334Z" fill="#7790ED"/>
<path d="M95.8422 11.4072C109.019 11.4072 122.201 11.4072 135.377 11.4072C135.976 11.4072 136.585 11.3807 137.179 11.4654C138.371 11.635 139.07 12.3608 139.166 13.5582C139.266 14.8139 138.694 15.6987 137.47 16.0484C136.951 16.1967 136.384 16.2073 135.838 16.2073C109.231 16.2126 82.6231 16.2126 56.0156 16.2073C55.4698 16.2073 54.9029 16.1967 54.3784 16.0643C53.1545 15.7464 52.4975 14.8828 52.577 13.6377C52.6512 12.3979 53.3929 11.6138 54.6592 11.4548C55.2049 11.386 55.7612 11.4019 56.3123 11.4019C69.4889 11.4019 82.6708 11.4019 95.8475 11.4019L95.8422 11.4072Z" fill="#7790ED"/>
<path d="M32.4969 13.7755C32.4969 12.5357 33.5459 11.5079 34.8122 11.4973C36.0838 11.4814 37.1275 12.4775 37.1593 13.7331C37.1911 15.0418 36.105 16.112 34.7751 16.0802C33.4983 16.0484 32.4863 15.0312 32.4916 13.7755H32.4969Z" fill="#30429E"/>
<path d="M14.4776 16.0856C13.2166 16.0644 12.2258 15.0577 12.2258 13.7861C12.2258 12.4563 13.2961 11.439 14.6312 11.4973C15.9028 11.5556 16.83 12.5729 16.7929 13.8709C16.7505 15.1637 15.765 16.1068 14.4776 16.0856Z" fill="#30429E"/>
<path d="M24.6077 11.4919C25.8899 11.4549 26.923 12.4138 26.9707 13.6854C27.0237 14.9729 26.0806 16.0113 24.8143 16.0749C23.458 16.1438 22.393 15.1583 22.3771 13.8126C22.3613 12.541 23.3361 11.5237 24.613 11.4919H24.6077Z" fill="#30429E"/>
</g>
<defs>
<clipPath id="clip0_736_2726">
<rect width="153.998" height="153.966" fill="white" transform="translate(0.198975 0.683594)"/>
</clipPath>
</defs>
</svg>
