<svg width="1218" height="887" viewBox="0 0 1218 887" fill="none" xmlns="http://www.w3.org/2000/svg">
<path opacity="0.2" d="M1254.72 250.287C1197.79 230.623 1157.61 225.456 1123.8 231.287C1076.05 242.634 1032.68 273.467 1006.56 320.104C979.108 369.117 970.11 448.025 1011.6 509.819C1032.89 535.521 1057.43 554.546 1074.99 565.476C1125.36 595.349 1142.41 661.217 1112.79 714.098C1082.74 767.762 1016.07 787.605 963.933 758.404C914.376 730.648 899.086 678.516 919.935 616.408C952.081 517.425 935.881 417.497 856.935 364.912C856.626 364.772 856.289 364.683 855.995 364.518C829.404 350.189 802.467 341.777 776.003 339.375C727.451 338.913 679.049 361.049 642.328 390.094C633.393 397.176 625.328 405.411 618.635 414.713C614.16 420.973 609.973 427.528 606.108 434.428C590.79 461.779 577.31 508.655 585.386 558.174C588.534 577.437 595.622 600.667 610.589 623.595C631.962 649.545 656.696 668.744 674.376 679.743C724.748 709.616 741.798 775.484 712.18 828.365C682.123 882.029 615.456 901.872 563.32 872.671C513.763 844.915 498.473 792.783 519.322 730.675C553.076 626.748 533.558 521.741 444.07 471.62C354.582 421.499 244.26 485.53 199.011 548.119C166.317 594.395 113.064 611.888 65.631 592.262C-4.38623 563.308 -22.1644 469.768 30.8825 412.842C61.1863 380.337 106.09 371.416 155.322 388.463C226.245 412.978 271.195 414.975 310.232 401.208C353.648 385.842 384.583 350.137 421.987 307.661C427.583 301.298 433.465 295.693 439.533 290.79C452.521 279.468 467.659 271.908 484.319 268.256C496.357 265.368 508.594 264.717 520.664 266.264C532.09 267.35 543.896 269.944 555.977 274.121C596.435 288.113 628.459 294.759 655.727 295.321C713.66 291.074 769.039 258.035 800.086 202.602C811.483 182.253 818.539 160.669 821.659 138.972C825.812 63.7601 798.066 -4.14763 731.318 -41.532C641.83 -91.6529 531.565 -27.7226 486.301 34.8912C453.608 81.1675 400.354 98.6608 352.921 79.0347C282.914 50.119 265.122 -43.3949 318.207 -100.333C348.497 -132.813 393.415 -141.759 442.622 -124.725C513.546 -100.211 570.775 -91.336 609.797 -105.078C651.023 -119.644 669.909 -158.778 703.722 -199.047C703.804 -199.135 703.846 -199.211 703.927 -199.298C719.664 -221.865 742.393 -237.161 767.214 -243.748C767.524 -243.84 767.858 -243.919 768.168 -244.011C768.579 -244.112 768.966 -244.227 769.378 -244.329C791.633 -250.195 814.615 -248.314 836.092 -239.141C836.563 -238.944 837.057 -238.733 837.528 -238.536C838.43 -238.131 839.356 -237.711 840.269 -237.267C841.009 -236.918 841.774 -236.556 842.501 -236.183C843.462 -235.71 844.395 -235.188 845.343 -234.69C845.809 -234.429 846.265 -234.207 846.732 -233.945C846.806 -233.904 846.855 -233.877 846.928 -233.835C847.002 -233.794 847.051 -233.767 847.125 -233.725C847.788 -233.354 848.437 -232.957 849.061 -232.574C849.882 -232.082 850.692 -231.628 851.513 -231.135C852.039 -230.807 852.551 -230.454 853.077 -230.126C897.541 -201.57 910.659 -151.319 890.744 -91.9745C856.99 11.9528 876.508 116.96 965.996 167.081C1055.48 217.201 1165.75 153.271 1211.01 90.6574C1243.71 44.381 1296.96 26.8877 1344.39 46.5139C1414.43 75.4823 1432.23 168.996 1379.14 225.934C1348.83 258.401 1303.92 267.321 1254.72 250.287Z" fill="#B4C7F2"/>
</svg>
