<?xml version="1.0" encoding="UTF-8"?>
<svg id="Layer_1" data-name="Layer 1" xmlns="http://www.w3.org/2000/svg" viewBox="0 0 24.98 17.76">
  <defs>
    <style>
      .cls-1 {
        fill: #231f20;
      }
    </style>
  </defs>
  <path class="cls-1" d="M22.68,4.57l-1.9,11.02H4.21l-1.88-11.01c.92-.17,1.44-.79,1.85-1.26.44-.53.7-.79,1.23-.79s.79.28,1.23.79c.47.55,1.12,1.31,2.33,1.31s1.86-.76,2.33-1.31c.44-.53.7-.79,1.23-.79s.79.28,1.23.79c.47.55,1.12,1.31,2.33,1.31s1.86-.76,2.33-1.31c.44-.53.7-.79,1.23-.79s.79.28,1.23.79c.39.46.91,1.06,1.77,1.24M24.98,0h-1.54l-.53,3.1c-.34-.1-.57-.35-.92-.76-.47-.55-1.1-1.31-2.33-1.31s-1.86.76-2.33,1.31c-.44.53-.7.79-1.23.79s-.79-.26-1.23-.79c-.47-.55-1.12-1.31-2.33-1.31s-1.86.76-2.33,1.31c-.44.53-.7.79-1.23.79s-.79-.26-1.23-.79c-.47-.55-1.1-1.31-2.33-1.31s-1.86.76-2.33,1.31c-.37.43-.62.7-1,.78L1.52,0H0l2.93,17.11h19.1L24.98,0Z"/>
</svg>