<?xml version="1.0" encoding="UTF-8"?>
<svg id="Layer_1" data-name="Layer 1" xmlns="http://www.w3.org/2000/svg" viewBox="0 0 25.51 25.51">
  <defs>
    <style>
      .cls-1 {
        fill: #231f20;
      }
    </style>
  </defs>
  <path class="cls-1" d="M20.44,10.23l-1.43,8.31H6.51l-1.42-8.3c.69-.13,1.09-.6,1.4-.95.33-.4.53-.6.93-.6s.6.21.93.6c.35.41.84.99,1.76.99s1.4-.57,1.76-.99c.33-.4.53-.6.93-.6s.6.21.93.6c.35.41.84.99,1.76.99s1.4-.57,1.76-.99c.33-.4.53-.6.93-.6s.6.21.93.6c.29.35.69.8,1.33.94M22.18,6.78h-1.16l-.4,2.34c-.26-.08-.43-.26-.69-.57-.35-.41-.83-.99-1.76-.99s-1.4.57-1.76.99c-.33.4-.53.6-.93.6s-.6-.2-.93-.6c-.35-.41-.84-.99-1.76-.99s-1.4.57-1.76.99c-.33.4-.53.6-.93.6s-.6-.2-.93-.6c-.35-.41-.83-.99-1.76-.99s-1.4.57-1.76.99c-.28.32-.47.53-.75.59l-.43-2.35h-1.15l2.21,12.9h14.4l2.22-12.9Z"/>
</svg>